M48
; DRILL file {KiCad 5.1.9-73d0e3b20d~88~ubuntu20.04.1} date Sat Mar 27 20:57:40 2021
; FORMAT={-:-/ absolute / metric / decimal}
; #@! TF.CreationDate,2021-03-27T20:57:40+01:00
; #@! TF.GenerationSoftware,Kicad,Pcbnew,5.1.9-73d0e3b20d~88~ubuntu20.04.1
; #@! TF.FileFunction,Plated,1,2,PTH
FMAT,2
METRIC
T1C0.400
T2C0.850
T3C1.000
T4C1.300
%
G90
G05
T1
X97.536Y-81.661
X102.616Y-84.455
X102.616Y-86.487
X102.743Y-78.486
X112.522Y-86.487
T2
X85.358Y-55.572
X85.358Y-60.572
X114.758Y-50.372
X114.758Y-65.772
T3
X89.916Y-73.787
X89.916Y-76.327
X89.916Y-78.867
X89.916Y-81.407
X89.916Y-83.947
X89.916Y-86.487
T4
X73.015Y-76.625
X73.015Y-91.865
X77.216Y-50.532
X77.216Y-55.532
X77.216Y-60.532
X77.216Y-65.532
X80.615Y-79.165
X80.615Y-91.865
T0
M30
