G04 #@! TF.GenerationSoftware,KiCad,Pcbnew,5.1.9-73d0e3b20d~88~ubuntu20.04.1*
G04 #@! TF.CreationDate,2021-03-27T20:57:37+01:00*
G04 #@! TF.ProjectId,Ceiling lamp,4365696c-696e-4672-906c-616d702e6b69,rev?*
G04 #@! TF.SameCoordinates,Original*
G04 #@! TF.FileFunction,Copper,L1,Top*
G04 #@! TF.FilePolarity,Positive*
%FSLAX46Y46*%
G04 Gerber Fmt 4.6, Leading zero omitted, Abs format (unit mm)*
G04 Created by KiCad (PCBNEW 5.1.9-73d0e3b20d~88~ubuntu20.04.1) date 2021-03-27 20:57:37*
%MOMM*%
%LPD*%
G01*
G04 APERTURE LIST*
G04 #@! TA.AperFunction,ComponentPad*
%ADD10C,2.500000*%
G04 #@! TD*
G04 #@! TA.AperFunction,SMDPad,CuDef*
%ADD11R,0.700000X0.510000*%
G04 #@! TD*
G04 #@! TA.AperFunction,SMDPad,CuDef*
%ADD12R,0.700000X1.450000*%
G04 #@! TD*
G04 #@! TA.AperFunction,ComponentPad*
%ADD13R,1.700000X1.700000*%
G04 #@! TD*
G04 #@! TA.AperFunction,ComponentPad*
%ADD14O,1.700000X1.700000*%
G04 #@! TD*
G04 #@! TA.AperFunction,SMDPad,CuDef*
%ADD15R,2.500000X1.000000*%
G04 #@! TD*
G04 #@! TA.AperFunction,SMDPad,CuDef*
%ADD16R,1.000000X1.800000*%
G04 #@! TD*
G04 #@! TA.AperFunction,SMDPad,CuDef*
%ADD17R,2.000000X3.800000*%
G04 #@! TD*
G04 #@! TA.AperFunction,SMDPad,CuDef*
%ADD18R,2.000000X1.500000*%
G04 #@! TD*
G04 #@! TA.AperFunction,ComponentPad*
%ADD19R,2.600000X2.600000*%
G04 #@! TD*
G04 #@! TA.AperFunction,ComponentPad*
%ADD20C,2.600000*%
G04 #@! TD*
G04 #@! TA.AperFunction,ViaPad*
%ADD21C,0.800000*%
G04 #@! TD*
G04 #@! TA.AperFunction,Conductor*
%ADD22C,0.350000*%
G04 #@! TD*
G04 #@! TA.AperFunction,Conductor*
%ADD23C,0.250000*%
G04 #@! TD*
G04 #@! TA.AperFunction,Conductor*
%ADD24C,0.400000*%
G04 #@! TD*
G04 #@! TA.AperFunction,Conductor*
%ADD25C,0.300000*%
G04 #@! TD*
G04 #@! TA.AperFunction,Conductor*
%ADD26C,0.254000*%
G04 #@! TD*
G04 #@! TA.AperFunction,Conductor*
%ADD27C,0.100000*%
G04 #@! TD*
G04 APERTURE END LIST*
D10*
X85358000Y-55572000D03*
X85358000Y-60572000D03*
X114758000Y-50372000D03*
X114758000Y-65772000D03*
X80615000Y-91865000D03*
X73015000Y-91865000D03*
X73015000Y-76625000D03*
X80615000Y-79165000D03*
D11*
X96537000Y-73467000D03*
X96537000Y-72517000D03*
X96537000Y-71567000D03*
X94217000Y-71567000D03*
X94217000Y-73467000D03*
D12*
X96758000Y-94274000D03*
X96758000Y-89114000D03*
X94758000Y-89114000D03*
X94758000Y-94274000D03*
G04 #@! TA.AperFunction,SMDPad,CuDef*
G36*
G01*
X95981000Y-75694250D02*
X95981000Y-75181750D01*
G75*
G02*
X96199750Y-74963000I218750J0D01*
G01*
X96637250Y-74963000D01*
G75*
G02*
X96856000Y-75181750I0J-218750D01*
G01*
X96856000Y-75694250D01*
G75*
G02*
X96637250Y-75913000I-218750J0D01*
G01*
X96199750Y-75913000D01*
G75*
G02*
X95981000Y-75694250I0J218750D01*
G01*
G37*
G04 #@! TD.AperFunction*
G04 #@! TA.AperFunction,SMDPad,CuDef*
G36*
G01*
X94406000Y-75694250D02*
X94406000Y-75181750D01*
G75*
G02*
X94624750Y-74963000I218750J0D01*
G01*
X95062250Y-74963000D01*
G75*
G02*
X95281000Y-75181750I0J-218750D01*
G01*
X95281000Y-75694250D01*
G75*
G02*
X95062250Y-75913000I-218750J0D01*
G01*
X94624750Y-75913000D01*
G75*
G02*
X94406000Y-75694250I0J218750D01*
G01*
G37*
G04 #@! TD.AperFunction*
G04 #@! TA.AperFunction,SMDPad,CuDef*
G36*
G01*
X96729000Y-69339750D02*
X96729000Y-69852250D01*
G75*
G02*
X96510250Y-70071000I-218750J0D01*
G01*
X96072750Y-70071000D01*
G75*
G02*
X95854000Y-69852250I0J218750D01*
G01*
X95854000Y-69339750D01*
G75*
G02*
X96072750Y-69121000I218750J0D01*
G01*
X96510250Y-69121000D01*
G75*
G02*
X96729000Y-69339750I0J-218750D01*
G01*
G37*
G04 #@! TD.AperFunction*
G04 #@! TA.AperFunction,SMDPad,CuDef*
G36*
G01*
X95154000Y-69339750D02*
X95154000Y-69852250D01*
G75*
G02*
X94935250Y-70071000I-218750J0D01*
G01*
X94497750Y-70071000D01*
G75*
G02*
X94279000Y-69852250I0J218750D01*
G01*
X94279000Y-69339750D01*
G75*
G02*
X94497750Y-69121000I218750J0D01*
G01*
X94935250Y-69121000D01*
G75*
G02*
X95154000Y-69339750I0J-218750D01*
G01*
G37*
G04 #@! TD.AperFunction*
D13*
X89916000Y-73787000D03*
D14*
X89916000Y-76327000D03*
X89916000Y-78867000D03*
X89916000Y-81407000D03*
X89916000Y-83947000D03*
X89916000Y-86487000D03*
G04 #@! TA.AperFunction,SMDPad,CuDef*
G36*
G01*
X85513000Y-88165000D02*
X85513000Y-88365000D01*
G75*
G02*
X85413000Y-88465000I-100000J0D01*
G01*
X85153000Y-88465000D01*
G75*
G02*
X85053000Y-88365000I0J100000D01*
G01*
X85053000Y-88165000D01*
G75*
G02*
X85153000Y-88065000I100000J0D01*
G01*
X85413000Y-88065000D01*
G75*
G02*
X85513000Y-88165000I0J-100000D01*
G01*
G37*
G04 #@! TD.AperFunction*
G04 #@! TA.AperFunction,SMDPad,CuDef*
G36*
G01*
X84873000Y-88165000D02*
X84873000Y-88365000D01*
G75*
G02*
X84773000Y-88465000I-100000J0D01*
G01*
X84513000Y-88465000D01*
G75*
G02*
X84413000Y-88365000I0J100000D01*
G01*
X84413000Y-88165000D01*
G75*
G02*
X84513000Y-88065000I100000J0D01*
G01*
X84773000Y-88065000D01*
G75*
G02*
X84873000Y-88165000I0J-100000D01*
G01*
G37*
G04 #@! TD.AperFunction*
G04 #@! TA.AperFunction,SMDPad,CuDef*
G36*
G01*
X94279000Y-86870250D02*
X94279000Y-86357750D01*
G75*
G02*
X94497750Y-86139000I218750J0D01*
G01*
X94935250Y-86139000D01*
G75*
G02*
X95154000Y-86357750I0J-218750D01*
G01*
X95154000Y-86870250D01*
G75*
G02*
X94935250Y-87089000I-218750J0D01*
G01*
X94497750Y-87089000D01*
G75*
G02*
X94279000Y-86870250I0J218750D01*
G01*
G37*
G04 #@! TD.AperFunction*
G04 #@! TA.AperFunction,SMDPad,CuDef*
G36*
G01*
X95854000Y-86870250D02*
X95854000Y-86357750D01*
G75*
G02*
X96072750Y-86139000I218750J0D01*
G01*
X96510250Y-86139000D01*
G75*
G02*
X96729000Y-86357750I0J-218750D01*
G01*
X96729000Y-86870250D01*
G75*
G02*
X96510250Y-87089000I-218750J0D01*
G01*
X96072750Y-87089000D01*
G75*
G02*
X95854000Y-86870250I0J218750D01*
G01*
G37*
G04 #@! TD.AperFunction*
D15*
X114641000Y-86518000D03*
X114641000Y-84518000D03*
X114641000Y-82518000D03*
X114641000Y-80518000D03*
X114641000Y-78518000D03*
X114641000Y-76518000D03*
X114641000Y-74518000D03*
X114641000Y-72518000D03*
D16*
X112041000Y-71018000D03*
X110041000Y-71018000D03*
X108041000Y-71018000D03*
X106041000Y-71018000D03*
X104041000Y-71018000D03*
X102041000Y-71018000D03*
D15*
X99441000Y-72518000D03*
X99441000Y-74518000D03*
X99441000Y-76518000D03*
X99441000Y-78518000D03*
X99441000Y-80518000D03*
X99441000Y-82518000D03*
X99441000Y-84518000D03*
X99441000Y-86518000D03*
G04 #@! TA.AperFunction,SMDPad,CuDef*
G36*
G01*
X95281000Y-82312500D02*
X95281000Y-82787500D01*
G75*
G02*
X95043500Y-83025000I-237500J0D01*
G01*
X94468500Y-83025000D01*
G75*
G02*
X94231000Y-82787500I0J237500D01*
G01*
X94231000Y-82312500D01*
G75*
G02*
X94468500Y-82075000I237500J0D01*
G01*
X95043500Y-82075000D01*
G75*
G02*
X95281000Y-82312500I0J-237500D01*
G01*
G37*
G04 #@! TD.AperFunction*
G04 #@! TA.AperFunction,SMDPad,CuDef*
G36*
G01*
X97031000Y-82312500D02*
X97031000Y-82787500D01*
G75*
G02*
X96793500Y-83025000I-237500J0D01*
G01*
X96218500Y-83025000D01*
G75*
G02*
X95981000Y-82787500I0J237500D01*
G01*
X95981000Y-82312500D01*
G75*
G02*
X96218500Y-82075000I237500J0D01*
G01*
X96793500Y-82075000D01*
G75*
G02*
X97031000Y-82312500I0J-237500D01*
G01*
G37*
G04 #@! TD.AperFunction*
G04 #@! TA.AperFunction,SMDPad,CuDef*
G36*
G01*
X94231000Y-78723500D02*
X94231000Y-78248500D01*
G75*
G02*
X94468500Y-78011000I237500J0D01*
G01*
X95043500Y-78011000D01*
G75*
G02*
X95281000Y-78248500I0J-237500D01*
G01*
X95281000Y-78723500D01*
G75*
G02*
X95043500Y-78961000I-237500J0D01*
G01*
X94468500Y-78961000D01*
G75*
G02*
X94231000Y-78723500I0J237500D01*
G01*
G37*
G04 #@! TD.AperFunction*
G04 #@! TA.AperFunction,SMDPad,CuDef*
G36*
G01*
X95981000Y-78723500D02*
X95981000Y-78248500D01*
G75*
G02*
X96218500Y-78011000I237500J0D01*
G01*
X96793500Y-78011000D01*
G75*
G02*
X97031000Y-78248500I0J-237500D01*
G01*
X97031000Y-78723500D01*
G75*
G02*
X96793500Y-78961000I-237500J0D01*
G01*
X96218500Y-78961000D01*
G75*
G02*
X95981000Y-78723500I0J237500D01*
G01*
G37*
G04 #@! TD.AperFunction*
G04 #@! TA.AperFunction,SMDPad,CuDef*
G36*
G01*
X95281000Y-80280500D02*
X95281000Y-80755500D01*
G75*
G02*
X95043500Y-80993000I-237500J0D01*
G01*
X94468500Y-80993000D01*
G75*
G02*
X94231000Y-80755500I0J237500D01*
G01*
X94231000Y-80280500D01*
G75*
G02*
X94468500Y-80043000I237500J0D01*
G01*
X95043500Y-80043000D01*
G75*
G02*
X95281000Y-80280500I0J-237500D01*
G01*
G37*
G04 #@! TD.AperFunction*
G04 #@! TA.AperFunction,SMDPad,CuDef*
G36*
G01*
X97031000Y-80280500D02*
X97031000Y-80755500D01*
G75*
G02*
X96793500Y-80993000I-237500J0D01*
G01*
X96218500Y-80993000D01*
G75*
G02*
X95981000Y-80755500I0J237500D01*
G01*
X95981000Y-80280500D01*
G75*
G02*
X96218500Y-80043000I237500J0D01*
G01*
X96793500Y-80043000D01*
G75*
G02*
X97031000Y-80280500I0J-237500D01*
G01*
G37*
G04 #@! TD.AperFunction*
G04 #@! TA.AperFunction,SMDPad,CuDef*
G36*
G01*
X94231000Y-84819500D02*
X94231000Y-84344500D01*
G75*
G02*
X94468500Y-84107000I237500J0D01*
G01*
X95043500Y-84107000D01*
G75*
G02*
X95281000Y-84344500I0J-237500D01*
G01*
X95281000Y-84819500D01*
G75*
G02*
X95043500Y-85057000I-237500J0D01*
G01*
X94468500Y-85057000D01*
G75*
G02*
X94231000Y-84819500I0J237500D01*
G01*
G37*
G04 #@! TD.AperFunction*
G04 #@! TA.AperFunction,SMDPad,CuDef*
G36*
G01*
X95981000Y-84819500D02*
X95981000Y-84344500D01*
G75*
G02*
X96218500Y-84107000I237500J0D01*
G01*
X96793500Y-84107000D01*
G75*
G02*
X97031000Y-84344500I0J-237500D01*
G01*
X97031000Y-84819500D01*
G75*
G02*
X96793500Y-85057000I-237500J0D01*
G01*
X96218500Y-85057000D01*
G75*
G02*
X95981000Y-84819500I0J237500D01*
G01*
G37*
G04 #@! TD.AperFunction*
D17*
X85242000Y-91821000D03*
D18*
X91542000Y-91821000D03*
X91542000Y-89521000D03*
X91542000Y-94121000D03*
D19*
X77216000Y-65532000D03*
D20*
X77216000Y-60532000D03*
X77216000Y-55532000D03*
X77216000Y-50532000D03*
D21*
X102743000Y-78486000D03*
X112522000Y-86487000D03*
X97536000Y-81661000D03*
X102616000Y-84455000D03*
X102616000Y-86487000D03*
D22*
X95937000Y-73467000D02*
X95377000Y-72907000D01*
X96537000Y-73467000D02*
X95937000Y-73467000D01*
X95819000Y-71567000D02*
X96537000Y-71567000D01*
X95377000Y-72009000D02*
X95819000Y-71567000D01*
X95377000Y-72907000D02*
X95377000Y-72263000D01*
X95377000Y-72263000D02*
X95377000Y-72009000D01*
X96291500Y-70332500D02*
X96291500Y-69596000D01*
X95377000Y-72009000D02*
X95377000Y-71247000D01*
X95377000Y-71247000D02*
X96291500Y-70332500D01*
X100979000Y-65772000D02*
X114758000Y-65772000D01*
X96291500Y-69596000D02*
X97155000Y-69596000D01*
X97155000Y-69596000D02*
X100979000Y-65772000D01*
D23*
X80615000Y-90592208D02*
X82942208Y-88265000D01*
X80615000Y-91865000D02*
X80615000Y-90592208D01*
X82942208Y-88265000D02*
X84313000Y-88265000D01*
X84313000Y-88265000D02*
X84643000Y-88265000D01*
D22*
X86492000Y-91821000D02*
X91542000Y-91821000D01*
X85242000Y-91821000D02*
X86492000Y-91821000D01*
X85198000Y-91865000D02*
X85242000Y-91821000D01*
D23*
X85283000Y-91780000D02*
X85242000Y-91821000D01*
X85283000Y-88265000D02*
X85283000Y-91780000D01*
D22*
X83992000Y-91821000D02*
X81833000Y-93980000D01*
X85242000Y-91821000D02*
X83992000Y-91821000D01*
X75130000Y-93980000D02*
X73015000Y-91865000D01*
X81833000Y-93980000D02*
X75130000Y-93980000D01*
D24*
X99440000Y-72517000D02*
X99441000Y-72518000D01*
X97536000Y-72517000D02*
X99440000Y-72517000D01*
X96537000Y-72517000D02*
X97536000Y-72517000D01*
X97941000Y-74518000D02*
X99441000Y-74518000D01*
X97536000Y-74113000D02*
X97941000Y-74518000D01*
X97536000Y-73914000D02*
X97536000Y-74113000D01*
X96956000Y-75438000D02*
X97536000Y-74858000D01*
X96418500Y-75438000D02*
X96956000Y-75438000D01*
X97536000Y-74858000D02*
X97536000Y-73660000D01*
X97536000Y-72517000D02*
X97536000Y-73660000D01*
X97536000Y-73660000D02*
X97536000Y-73914000D01*
X94615000Y-66675000D02*
X94488000Y-66802000D01*
X110918000Y-50372000D02*
X114758000Y-50372000D01*
X94488000Y-66802000D02*
X110918000Y-50372000D01*
X94716500Y-89028500D02*
X94631000Y-89114000D01*
X94716500Y-86614000D02*
X94716500Y-89028500D01*
X94758000Y-91487000D02*
X94758000Y-91694000D01*
X92792000Y-89521000D02*
X94758000Y-91487000D01*
X91542000Y-89521000D02*
X92792000Y-89521000D01*
X94758000Y-89114000D02*
X94758000Y-91694000D01*
X94758000Y-91694000D02*
X94758000Y-94274000D01*
X91542000Y-89521000D02*
X88632000Y-89521000D01*
X88632000Y-89521000D02*
X87503000Y-88392000D01*
X88816000Y-73787000D02*
X87546000Y-75057000D01*
X87546000Y-75057000D02*
X87503000Y-75057000D01*
X89916000Y-73787000D02*
X88816000Y-73787000D01*
X87503000Y-88392000D02*
X87503000Y-75057000D01*
X87503000Y-75057000D02*
X87503000Y-73787000D01*
X94716500Y-69596000D02*
X91694000Y-69596000D01*
X87503000Y-73787000D02*
X91694000Y-69596000D01*
X91694000Y-69596000D02*
X94488000Y-66802000D01*
X97536000Y-72517000D02*
X97536000Y-71628000D01*
X97536000Y-71628000D02*
X100711000Y-68453000D01*
X100711000Y-68453000D02*
X115189000Y-68453000D01*
X115189000Y-68453000D02*
X115443000Y-68453000D01*
X115443000Y-68453000D02*
X116332000Y-67564000D01*
X116332000Y-51946000D02*
X114758000Y-50372000D01*
X116332000Y-67564000D02*
X116332000Y-51946000D01*
D23*
X94756000Y-85078500D02*
X94756000Y-84582000D01*
X96291500Y-86614000D02*
X94756000Y-85078500D01*
D25*
X93599000Y-77470000D02*
X93599000Y-75946000D01*
X114641000Y-72518000D02*
X113141000Y-72518000D01*
X94131000Y-82550000D02*
X93599000Y-82018000D01*
X93599000Y-82018000D02*
X93599000Y-81788000D01*
X93599000Y-81050000D02*
X93599000Y-81788000D01*
X94756000Y-82550000D02*
X94131000Y-82550000D01*
X94107000Y-80518000D02*
X93599000Y-80010000D01*
X94756000Y-80518000D02*
X94107000Y-80518000D01*
X93599000Y-81050000D02*
X93599000Y-80010000D01*
X93599000Y-80010000D02*
X93599000Y-78994000D01*
X93853000Y-78486000D02*
X93599000Y-78232000D01*
X94756000Y-78486000D02*
X93853000Y-78486000D01*
X93599000Y-78994000D02*
X93599000Y-78232000D01*
X93599000Y-78232000D02*
X93599000Y-77470000D01*
X105601000Y-76518000D02*
X111601000Y-82518000D01*
X111601000Y-82518000D02*
X113411000Y-82518000D01*
X99441000Y-76518000D02*
X105601000Y-76518000D01*
X114641000Y-82518000D02*
X113411000Y-82518000D01*
X113411000Y-82518000D02*
X113141000Y-82518000D01*
X105601000Y-76518000D02*
X107887000Y-76518000D01*
X111887000Y-72518000D02*
X114641000Y-72518000D01*
X107887000Y-76518000D02*
X111887000Y-72518000D01*
X94171000Y-76518000D02*
X93599000Y-75946000D01*
X99441000Y-76518000D02*
X94171000Y-76518000D01*
X94306000Y-75438000D02*
X93726000Y-74858000D01*
X94843500Y-75438000D02*
X94306000Y-75438000D01*
X93599000Y-74803000D02*
X93726000Y-74676000D01*
X93726000Y-74858000D02*
X93726000Y-74676000D01*
X94217000Y-74185000D02*
X94217000Y-73467000D01*
X93726000Y-74676000D02*
X94217000Y-74185000D01*
X93599000Y-75946000D02*
X93599000Y-74803000D01*
D23*
X93599000Y-74803000D02*
X92075000Y-76327000D01*
X92075000Y-76327000D02*
X89916000Y-76327000D01*
X96506000Y-80518000D02*
X97917000Y-80518000D01*
X97917000Y-80518000D02*
X99441000Y-80518000D01*
X96758000Y-88739000D02*
X96758000Y-89114000D01*
X99441000Y-80518000D02*
X101981000Y-80518000D01*
X97867000Y-87630000D02*
X96758000Y-88739000D01*
X102616000Y-87630000D02*
X97867000Y-87630000D01*
X104013000Y-82550000D02*
X104013000Y-86233000D01*
X101981000Y-80518000D02*
X104013000Y-82550000D01*
X104013000Y-86233000D02*
X102616000Y-87630000D01*
X96758000Y-89114000D02*
X96758000Y-94274000D01*
X99409000Y-78486000D02*
X99441000Y-78518000D01*
X96506000Y-78486000D02*
X99409000Y-78486000D01*
X99473000Y-78486000D02*
X99441000Y-78518000D01*
X102743000Y-78486000D02*
X99473000Y-78486000D01*
X114610000Y-86487000D02*
X114641000Y-86518000D01*
X112522000Y-86487000D02*
X114610000Y-86487000D01*
X96506000Y-82550000D02*
X97282000Y-82550000D01*
X97536000Y-82296000D02*
X97536000Y-81661000D01*
X97282000Y-82550000D02*
X97536000Y-82296000D01*
X116141000Y-80518000D02*
X116967000Y-81344000D01*
X114641000Y-80518000D02*
X116141000Y-80518000D01*
X116967000Y-81344000D02*
X116967000Y-94488000D01*
X116967000Y-94488000D02*
X115570000Y-95885000D01*
X115570000Y-95885000D02*
X91948000Y-95885000D01*
X91542000Y-95479000D02*
X91542000Y-94121000D01*
X91948000Y-95885000D02*
X91542000Y-95479000D01*
X99441000Y-84518000D02*
X102553000Y-84518000D01*
X99472000Y-86487000D02*
X99441000Y-86518000D01*
X102616000Y-86487000D02*
X99472000Y-86487000D01*
X96291500Y-84796500D02*
X96506000Y-84582000D01*
X98570000Y-82518000D02*
X99441000Y-82518000D01*
X96506000Y-84582000D02*
X98570000Y-82518000D01*
D26*
X116817457Y-80119656D02*
X116704803Y-80007002D01*
X116681001Y-79977999D01*
X116565276Y-79883026D01*
X116503634Y-79850077D01*
X116480502Y-79773820D01*
X116421537Y-79663506D01*
X116342185Y-79566815D01*
X116282704Y-79518000D01*
X116342185Y-79469185D01*
X116421537Y-79372494D01*
X116480502Y-79262180D01*
X116516812Y-79142482D01*
X116529072Y-79018000D01*
X116529072Y-78018000D01*
X116516812Y-77893518D01*
X116480502Y-77773820D01*
X116421537Y-77663506D01*
X116342185Y-77566815D01*
X116282704Y-77518000D01*
X116342185Y-77469185D01*
X116421537Y-77372494D01*
X116480502Y-77262180D01*
X116516812Y-77142482D01*
X116529072Y-77018000D01*
X116529072Y-76018000D01*
X116516812Y-75893518D01*
X116480502Y-75773820D01*
X116421537Y-75663506D01*
X116342185Y-75566815D01*
X116282704Y-75518000D01*
X116342185Y-75469185D01*
X116421537Y-75372494D01*
X116480502Y-75262180D01*
X116516812Y-75142482D01*
X116529072Y-75018000D01*
X116529072Y-74018000D01*
X116516812Y-73893518D01*
X116480502Y-73773820D01*
X116421537Y-73663506D01*
X116342185Y-73566815D01*
X116282704Y-73518000D01*
X116342185Y-73469185D01*
X116421537Y-73372494D01*
X116480502Y-73262180D01*
X116516812Y-73142482D01*
X116529072Y-73018000D01*
X116529072Y-72018000D01*
X116516812Y-71893518D01*
X116480502Y-71773820D01*
X116421537Y-71663506D01*
X116342185Y-71566815D01*
X116245494Y-71487463D01*
X116135180Y-71428498D01*
X116015482Y-71392188D01*
X115891000Y-71379928D01*
X113391000Y-71379928D01*
X113266518Y-71392188D01*
X113179072Y-71418714D01*
X113179072Y-70118000D01*
X113166812Y-69993518D01*
X113130502Y-69873820D01*
X113071537Y-69763506D01*
X112992185Y-69666815D01*
X112895494Y-69587463D01*
X112785180Y-69528498D01*
X112665482Y-69492188D01*
X112541000Y-69479928D01*
X111541000Y-69479928D01*
X111416518Y-69492188D01*
X111296820Y-69528498D01*
X111186506Y-69587463D01*
X111089815Y-69666815D01*
X111041000Y-69726296D01*
X110992185Y-69666815D01*
X110895494Y-69587463D01*
X110785180Y-69528498D01*
X110665482Y-69492188D01*
X110541000Y-69479928D01*
X109541000Y-69479928D01*
X109416518Y-69492188D01*
X109296820Y-69528498D01*
X109186506Y-69587463D01*
X109089815Y-69666815D01*
X109041000Y-69726296D01*
X108992185Y-69666815D01*
X108895494Y-69587463D01*
X108785180Y-69528498D01*
X108665482Y-69492188D01*
X108541000Y-69479928D01*
X107541000Y-69479928D01*
X107416518Y-69492188D01*
X107296820Y-69528498D01*
X107186506Y-69587463D01*
X107089815Y-69666815D01*
X107041000Y-69726296D01*
X106992185Y-69666815D01*
X106895494Y-69587463D01*
X106785180Y-69528498D01*
X106665482Y-69492188D01*
X106541000Y-69479928D01*
X105541000Y-69479928D01*
X105416518Y-69492188D01*
X105296820Y-69528498D01*
X105186506Y-69587463D01*
X105089815Y-69666815D01*
X105041000Y-69726296D01*
X104992185Y-69666815D01*
X104895494Y-69587463D01*
X104785180Y-69528498D01*
X104665482Y-69492188D01*
X104541000Y-69479928D01*
X103541000Y-69479928D01*
X103416518Y-69492188D01*
X103296820Y-69528498D01*
X103186506Y-69587463D01*
X103089815Y-69666815D01*
X103041000Y-69726296D01*
X102992185Y-69666815D01*
X102895494Y-69587463D01*
X102785180Y-69528498D01*
X102665482Y-69492188D01*
X102541000Y-69479928D01*
X101541000Y-69479928D01*
X101416518Y-69492188D01*
X101296820Y-69528498D01*
X101186506Y-69587463D01*
X101089815Y-69666815D01*
X101010463Y-69763506D01*
X100951498Y-69873820D01*
X100915188Y-69993518D01*
X100902928Y-70118000D01*
X100902928Y-71418714D01*
X100815482Y-71392188D01*
X100691000Y-71379928D01*
X99726750Y-71383000D01*
X99568000Y-71541750D01*
X99568000Y-72391000D01*
X101116397Y-72391000D01*
X101186506Y-72448537D01*
X101296820Y-72507502D01*
X101416518Y-72543812D01*
X101541000Y-72556072D01*
X102541000Y-72556072D01*
X102665482Y-72543812D01*
X102785180Y-72507502D01*
X102895494Y-72448537D01*
X102992185Y-72369185D01*
X103041000Y-72309704D01*
X103089815Y-72369185D01*
X103186506Y-72448537D01*
X103296820Y-72507502D01*
X103416518Y-72543812D01*
X103541000Y-72556072D01*
X104541000Y-72556072D01*
X104665482Y-72543812D01*
X104785180Y-72507502D01*
X104895494Y-72448537D01*
X104992185Y-72369185D01*
X105041000Y-72309704D01*
X105089815Y-72369185D01*
X105186506Y-72448537D01*
X105296820Y-72507502D01*
X105416518Y-72543812D01*
X105541000Y-72556072D01*
X106541000Y-72556072D01*
X106665482Y-72543812D01*
X106785180Y-72507502D01*
X106895494Y-72448537D01*
X106992185Y-72369185D01*
X107041000Y-72309704D01*
X107089815Y-72369185D01*
X107186506Y-72448537D01*
X107296820Y-72507502D01*
X107416518Y-72543812D01*
X107541000Y-72556072D01*
X108541000Y-72556072D01*
X108665482Y-72543812D01*
X108785180Y-72507502D01*
X108895494Y-72448537D01*
X108992185Y-72369185D01*
X109041000Y-72309704D01*
X109089815Y-72369185D01*
X109186506Y-72448537D01*
X109296820Y-72507502D01*
X109416518Y-72543812D01*
X109541000Y-72556072D01*
X110541000Y-72556072D01*
X110665482Y-72543812D01*
X110785180Y-72507502D01*
X110789821Y-72505021D01*
X107561843Y-75733000D01*
X105639553Y-75733000D01*
X105601000Y-75729203D01*
X105562447Y-75733000D01*
X101258683Y-75733000D01*
X101221537Y-75663506D01*
X101142185Y-75566815D01*
X101082704Y-75518000D01*
X101142185Y-75469185D01*
X101221537Y-75372494D01*
X101280502Y-75262180D01*
X101316812Y-75142482D01*
X101329072Y-75018000D01*
X101326000Y-74803750D01*
X101167250Y-74645000D01*
X99568000Y-74645000D01*
X99568000Y-74665000D01*
X99314000Y-74665000D01*
X99314000Y-74645000D01*
X97714750Y-74645000D01*
X97556000Y-74803750D01*
X97552928Y-75018000D01*
X97565188Y-75142482D01*
X97601498Y-75262180D01*
X97660463Y-75372494D01*
X97739815Y-75469185D01*
X97799296Y-75518000D01*
X97739815Y-75566815D01*
X97660463Y-75663506D01*
X97623317Y-75733000D01*
X97491150Y-75733000D01*
X97491000Y-75723750D01*
X97332250Y-75565000D01*
X96545500Y-75565000D01*
X96545500Y-75585000D01*
X96291500Y-75585000D01*
X96291500Y-75565000D01*
X96271500Y-75565000D01*
X96271500Y-75311000D01*
X96291500Y-75311000D01*
X96291500Y-75291000D01*
X96545500Y-75291000D01*
X96545500Y-75311000D01*
X97332250Y-75311000D01*
X97491000Y-75152250D01*
X97494072Y-74963000D01*
X97481812Y-74838518D01*
X97445502Y-74718820D01*
X97386537Y-74608506D01*
X97307185Y-74511815D01*
X97210494Y-74432463D01*
X97100180Y-74373498D01*
X97013493Y-74347202D01*
X97131180Y-74311502D01*
X97241494Y-74252537D01*
X97338185Y-74173185D01*
X97417537Y-74076494D01*
X97476502Y-73966180D01*
X97512812Y-73846482D01*
X97525072Y-73722000D01*
X97525072Y-73212000D01*
X97512812Y-73087518D01*
X97491724Y-73018000D01*
X97552928Y-73018000D01*
X97565188Y-73142482D01*
X97601498Y-73262180D01*
X97660463Y-73372494D01*
X97739815Y-73469185D01*
X97799296Y-73518000D01*
X97739815Y-73566815D01*
X97660463Y-73663506D01*
X97601498Y-73773820D01*
X97565188Y-73893518D01*
X97552928Y-74018000D01*
X97556000Y-74232250D01*
X97714750Y-74391000D01*
X99314000Y-74391000D01*
X99314000Y-73541750D01*
X99290250Y-73518000D01*
X99314000Y-73494250D01*
X99314000Y-72645000D01*
X99568000Y-72645000D01*
X99568000Y-73494250D01*
X99591750Y-73518000D01*
X99568000Y-73541750D01*
X99568000Y-74391000D01*
X101167250Y-74391000D01*
X101326000Y-74232250D01*
X101329072Y-74018000D01*
X101316812Y-73893518D01*
X101280502Y-73773820D01*
X101221537Y-73663506D01*
X101142185Y-73566815D01*
X101082704Y-73518000D01*
X101142185Y-73469185D01*
X101221537Y-73372494D01*
X101280502Y-73262180D01*
X101316812Y-73142482D01*
X101329072Y-73018000D01*
X101326000Y-72803750D01*
X101167250Y-72645000D01*
X99568000Y-72645000D01*
X99314000Y-72645000D01*
X97714750Y-72645000D01*
X97556000Y-72803750D01*
X97552928Y-73018000D01*
X97491724Y-73018000D01*
X97483488Y-72990850D01*
X97509779Y-72910860D01*
X97522000Y-72802750D01*
X97363250Y-72644000D01*
X97171407Y-72644000D01*
X97131180Y-72622498D01*
X97011482Y-72586188D01*
X96887000Y-72573928D01*
X96390000Y-72573928D01*
X96390000Y-72460072D01*
X96887000Y-72460072D01*
X97011482Y-72447812D01*
X97131180Y-72411502D01*
X97171407Y-72390000D01*
X97363250Y-72390000D01*
X97522000Y-72231250D01*
X97509779Y-72123140D01*
X97483488Y-72043150D01*
X97491117Y-72018000D01*
X97552928Y-72018000D01*
X97556000Y-72232250D01*
X97714750Y-72391000D01*
X99314000Y-72391000D01*
X99314000Y-71541750D01*
X99155250Y-71383000D01*
X98191000Y-71379928D01*
X98066518Y-71392188D01*
X97946820Y-71428498D01*
X97836506Y-71487463D01*
X97739815Y-71566815D01*
X97660463Y-71663506D01*
X97601498Y-71773820D01*
X97565188Y-71893518D01*
X97552928Y-72018000D01*
X97491117Y-72018000D01*
X97512812Y-71946482D01*
X97525072Y-71822000D01*
X97525072Y-71312000D01*
X97512812Y-71187518D01*
X97476502Y-71067820D01*
X97417537Y-70957506D01*
X97338185Y-70860815D01*
X97241494Y-70781463D01*
X97131180Y-70722498D01*
X97019585Y-70688646D01*
X97027452Y-70673928D01*
X97043463Y-70643973D01*
X97089780Y-70491288D01*
X97091019Y-70478711D01*
X97116115Y-70458115D01*
X97155727Y-70409847D01*
X97194788Y-70406000D01*
X97194791Y-70406000D01*
X97313788Y-70394280D01*
X97466473Y-70347963D01*
X97607189Y-70272749D01*
X97730528Y-70171528D01*
X97755900Y-70140612D01*
X101314513Y-66582000D01*
X113053203Y-66582000D01*
X113087534Y-66664882D01*
X113293825Y-66973618D01*
X113556382Y-67236175D01*
X113865118Y-67442466D01*
X114208166Y-67584561D01*
X114572344Y-67657000D01*
X114943656Y-67657000D01*
X115307834Y-67584561D01*
X115650882Y-67442466D01*
X115959618Y-67236175D01*
X116222175Y-66973618D01*
X116428466Y-66664882D01*
X116570561Y-66321834D01*
X116643000Y-65957656D01*
X116643000Y-65586344D01*
X116570561Y-65222166D01*
X116428466Y-64879118D01*
X116222175Y-64570382D01*
X115959618Y-64307825D01*
X115650882Y-64101534D01*
X115307834Y-63959439D01*
X114943656Y-63887000D01*
X114572344Y-63887000D01*
X114208166Y-63959439D01*
X113865118Y-64101534D01*
X113556382Y-64307825D01*
X113293825Y-64570382D01*
X113087534Y-64879118D01*
X113053203Y-64962000D01*
X101018788Y-64962000D01*
X100979000Y-64958081D01*
X100939212Y-64962000D01*
X100939209Y-64962000D01*
X100820212Y-64973720D01*
X100703063Y-65009257D01*
X100667526Y-65020037D01*
X100526811Y-65095251D01*
X100403472Y-65196472D01*
X100378105Y-65227382D01*
X96980986Y-68624502D01*
X96838142Y-68548150D01*
X96677408Y-68499392D01*
X96510250Y-68482928D01*
X96072750Y-68482928D01*
X95905592Y-68499392D01*
X95744858Y-68548150D01*
X95596725Y-68627329D01*
X95575070Y-68645100D01*
X95508494Y-68590463D01*
X95398180Y-68531498D01*
X95278482Y-68495188D01*
X95154000Y-68482928D01*
X95002250Y-68486000D01*
X94843500Y-68644750D01*
X94843500Y-69469000D01*
X94863500Y-69469000D01*
X94863500Y-69723000D01*
X94843500Y-69723000D01*
X94843500Y-69743000D01*
X94589500Y-69743000D01*
X94589500Y-69723000D01*
X93802750Y-69723000D01*
X93644000Y-69881750D01*
X93640928Y-70071000D01*
X93653188Y-70195482D01*
X93689498Y-70315180D01*
X93748463Y-70425494D01*
X93827815Y-70522185D01*
X93924506Y-70601537D01*
X94034820Y-70660502D01*
X94079080Y-70673928D01*
X93867000Y-70673928D01*
X93742518Y-70686188D01*
X93622820Y-70722498D01*
X93512506Y-70781463D01*
X93415815Y-70860815D01*
X93336463Y-70957506D01*
X93277498Y-71067820D01*
X93241188Y-71187518D01*
X93228928Y-71312000D01*
X93228928Y-71822000D01*
X93241188Y-71946482D01*
X93277498Y-72066180D01*
X93336463Y-72176494D01*
X93415815Y-72273185D01*
X93512506Y-72352537D01*
X93622820Y-72411502D01*
X93742518Y-72447812D01*
X93867000Y-72460072D01*
X94567000Y-72460072D01*
X94567000Y-72573928D01*
X93867000Y-72573928D01*
X93742518Y-72586188D01*
X93622820Y-72622498D01*
X93512506Y-72681463D01*
X93415815Y-72760815D01*
X93336463Y-72857506D01*
X93277498Y-72967820D01*
X93241188Y-73087518D01*
X93228928Y-73212000D01*
X93228928Y-73722000D01*
X93241188Y-73846482D01*
X93277498Y-73966180D01*
X93294275Y-73997568D01*
X93198189Y-74093654D01*
X93168236Y-74118236D01*
X93143655Y-74148188D01*
X93071185Y-74220658D01*
X93041237Y-74245236D01*
X93016659Y-74275184D01*
X93016655Y-74275188D01*
X93011952Y-74280919D01*
X92943139Y-74364767D01*
X92920988Y-74406209D01*
X91760199Y-75567000D01*
X91194178Y-75567000D01*
X91069475Y-75380368D01*
X90937620Y-75248513D01*
X91010180Y-75226502D01*
X91120494Y-75167537D01*
X91217185Y-75088185D01*
X91296537Y-74991494D01*
X91355502Y-74881180D01*
X91391812Y-74761482D01*
X91404072Y-74637000D01*
X91401000Y-74072750D01*
X91242250Y-73914000D01*
X90043000Y-73914000D01*
X90043000Y-73934000D01*
X89789000Y-73934000D01*
X89789000Y-73914000D01*
X88589750Y-73914000D01*
X88431000Y-74072750D01*
X88427928Y-74637000D01*
X88440188Y-74761482D01*
X88476498Y-74881180D01*
X88535463Y-74991494D01*
X88614815Y-75088185D01*
X88711506Y-75167537D01*
X88821820Y-75226502D01*
X88894380Y-75248513D01*
X88762525Y-75380368D01*
X88600010Y-75623589D01*
X88488068Y-75893842D01*
X88431000Y-76180740D01*
X88431000Y-76473260D01*
X88488068Y-76760158D01*
X88600010Y-77030411D01*
X88762525Y-77273632D01*
X88969368Y-77480475D01*
X89143760Y-77597000D01*
X88969368Y-77713525D01*
X88762525Y-77920368D01*
X88600010Y-78163589D01*
X88488068Y-78433842D01*
X88431000Y-78720740D01*
X88431000Y-79013260D01*
X88488068Y-79300158D01*
X88600010Y-79570411D01*
X88762525Y-79813632D01*
X88969368Y-80020475D01*
X89143760Y-80137000D01*
X88969368Y-80253525D01*
X88762525Y-80460368D01*
X88600010Y-80703589D01*
X88488068Y-80973842D01*
X88431000Y-81260740D01*
X88431000Y-81553260D01*
X88488068Y-81840158D01*
X88600010Y-82110411D01*
X88762525Y-82353632D01*
X88969368Y-82560475D01*
X89143760Y-82677000D01*
X88969368Y-82793525D01*
X88762525Y-83000368D01*
X88600010Y-83243589D01*
X88488068Y-83513842D01*
X88431000Y-83800740D01*
X88431000Y-84093260D01*
X88488068Y-84380158D01*
X88600010Y-84650411D01*
X88762525Y-84893632D01*
X88969368Y-85100475D01*
X89143760Y-85217000D01*
X88969368Y-85333525D01*
X88762525Y-85540368D01*
X88600010Y-85783589D01*
X88488068Y-86053842D01*
X88431000Y-86340740D01*
X88431000Y-86633260D01*
X88488068Y-86920158D01*
X88600010Y-87190411D01*
X88762525Y-87433632D01*
X88969368Y-87640475D01*
X89212589Y-87802990D01*
X89482842Y-87914932D01*
X89769740Y-87972000D01*
X90062260Y-87972000D01*
X90349158Y-87914932D01*
X90619411Y-87802990D01*
X90862632Y-87640475D01*
X91069475Y-87433632D01*
X91231990Y-87190411D01*
X91343932Y-86920158D01*
X91401000Y-86633260D01*
X91401000Y-86340740D01*
X91343932Y-86053842D01*
X91231990Y-85783589D01*
X91069475Y-85540368D01*
X90862632Y-85333525D01*
X90688240Y-85217000D01*
X90862632Y-85100475D01*
X91069475Y-84893632D01*
X91231990Y-84650411D01*
X91343932Y-84380158D01*
X91401000Y-84093260D01*
X91401000Y-83800740D01*
X91343932Y-83513842D01*
X91231990Y-83243589D01*
X91069475Y-83000368D01*
X90862632Y-82793525D01*
X90688240Y-82677000D01*
X90862632Y-82560475D01*
X91069475Y-82353632D01*
X91231990Y-82110411D01*
X91343932Y-81840158D01*
X91401000Y-81553260D01*
X91401000Y-81260740D01*
X91343932Y-80973842D01*
X91231990Y-80703589D01*
X91069475Y-80460368D01*
X90862632Y-80253525D01*
X90688240Y-80137000D01*
X90862632Y-80020475D01*
X91069475Y-79813632D01*
X91231990Y-79570411D01*
X91343932Y-79300158D01*
X91401000Y-79013260D01*
X91401000Y-78720740D01*
X91343932Y-78433842D01*
X91231990Y-78163589D01*
X91069475Y-77920368D01*
X90862632Y-77713525D01*
X90688240Y-77597000D01*
X90862632Y-77480475D01*
X91069475Y-77273632D01*
X91194178Y-77087000D01*
X92037678Y-77087000D01*
X92075000Y-77090676D01*
X92112322Y-77087000D01*
X92112333Y-77087000D01*
X92223986Y-77076003D01*
X92367247Y-77032546D01*
X92499276Y-76961974D01*
X92615001Y-76867001D01*
X92638803Y-76837998D01*
X92814001Y-76662801D01*
X92814000Y-77431439D01*
X92814000Y-78193447D01*
X92810203Y-78232000D01*
X92814000Y-78270553D01*
X92814000Y-79032560D01*
X92814001Y-79032569D01*
X92814000Y-79971447D01*
X92810203Y-80010000D01*
X92814000Y-80048553D01*
X92814000Y-80048560D01*
X92814001Y-80048569D01*
X92814000Y-81011439D01*
X92814000Y-81979447D01*
X92810203Y-82018000D01*
X92814000Y-82056553D01*
X92814000Y-82056560D01*
X92825359Y-82171886D01*
X92870246Y-82319859D01*
X92943138Y-82456232D01*
X93041236Y-82575764D01*
X93071190Y-82600347D01*
X93548653Y-83077810D01*
X93573236Y-83107764D01*
X93692767Y-83205862D01*
X93708631Y-83214341D01*
X93740488Y-83273942D01*
X93849377Y-83406623D01*
X93982058Y-83515512D01*
X94076515Y-83566000D01*
X93982058Y-83616488D01*
X93849377Y-83725377D01*
X93740488Y-83858058D01*
X93659577Y-84009433D01*
X93609752Y-84173684D01*
X93592928Y-84344500D01*
X93592928Y-84819500D01*
X93609752Y-84990316D01*
X93659577Y-85154567D01*
X93740488Y-85305942D01*
X93849377Y-85438623D01*
X93982058Y-85547512D01*
X94010297Y-85562606D01*
X93924506Y-85608463D01*
X93827815Y-85687815D01*
X93748463Y-85784506D01*
X93689498Y-85894820D01*
X93653188Y-86014518D01*
X93640928Y-86139000D01*
X93644000Y-86328250D01*
X93802750Y-86487000D01*
X94589500Y-86487000D01*
X94589500Y-86467000D01*
X94843500Y-86467000D01*
X94843500Y-86487000D01*
X94863500Y-86487000D01*
X94863500Y-86741000D01*
X94843500Y-86741000D01*
X94843500Y-86761000D01*
X94589500Y-86761000D01*
X94589500Y-86741000D01*
X93802750Y-86741000D01*
X93675750Y-86868000D01*
X93345000Y-86868000D01*
X93320224Y-86870440D01*
X93296399Y-86877667D01*
X93274443Y-86889403D01*
X93255197Y-86905197D01*
X93239403Y-86924443D01*
X93227667Y-86946399D01*
X93220440Y-86970224D01*
X93218000Y-86995000D01*
X93218000Y-95120670D01*
X93129428Y-95119060D01*
X93131502Y-95115180D01*
X93167812Y-94995482D01*
X93180072Y-94871000D01*
X93180072Y-93371000D01*
X93167812Y-93246518D01*
X93131502Y-93126820D01*
X93072537Y-93016506D01*
X93035191Y-92971000D01*
X93072537Y-92925494D01*
X93131502Y-92815180D01*
X93167812Y-92695482D01*
X93180072Y-92571000D01*
X93180072Y-91071000D01*
X93167812Y-90946518D01*
X93131502Y-90826820D01*
X93072537Y-90716506D01*
X93035191Y-90671000D01*
X93072537Y-90625494D01*
X93131502Y-90515180D01*
X93167812Y-90395482D01*
X93180072Y-90271000D01*
X93177000Y-89806750D01*
X93018250Y-89648000D01*
X91669000Y-89648000D01*
X91669000Y-89668000D01*
X91415000Y-89668000D01*
X91415000Y-89648000D01*
X90065750Y-89648000D01*
X89907000Y-89806750D01*
X89903928Y-90271000D01*
X89916188Y-90395482D01*
X89952498Y-90515180D01*
X90011463Y-90625494D01*
X90048809Y-90671000D01*
X90011463Y-90716506D01*
X89952498Y-90826820D01*
X89916188Y-90946518D01*
X89909837Y-91011000D01*
X86880072Y-91011000D01*
X86880072Y-89921000D01*
X86867812Y-89796518D01*
X86831502Y-89676820D01*
X86772537Y-89566506D01*
X86693185Y-89469815D01*
X86596494Y-89390463D01*
X86487000Y-89331936D01*
X86487000Y-88771000D01*
X89903928Y-88771000D01*
X89907000Y-89235250D01*
X90065750Y-89394000D01*
X91415000Y-89394000D01*
X91415000Y-88294750D01*
X91669000Y-88294750D01*
X91669000Y-89394000D01*
X93018250Y-89394000D01*
X93177000Y-89235250D01*
X93180072Y-88771000D01*
X93167812Y-88646518D01*
X93131502Y-88526820D01*
X93072537Y-88416506D01*
X92993185Y-88319815D01*
X92896494Y-88240463D01*
X92786180Y-88181498D01*
X92666482Y-88145188D01*
X92542000Y-88132928D01*
X91827750Y-88136000D01*
X91669000Y-88294750D01*
X91415000Y-88294750D01*
X91256250Y-88136000D01*
X90542000Y-88132928D01*
X90417518Y-88145188D01*
X90297820Y-88181498D01*
X90187506Y-88240463D01*
X90090815Y-88319815D01*
X90011463Y-88416506D01*
X89952498Y-88526820D01*
X89916188Y-88646518D01*
X89903928Y-88771000D01*
X86487000Y-88771000D01*
X86487000Y-81505316D01*
X86531442Y-81358118D01*
X86544384Y-81292757D01*
X86558232Y-81227607D01*
X86559305Y-81217401D01*
X86583492Y-80970723D01*
X86587000Y-80935105D01*
X86587000Y-72937000D01*
X88427928Y-72937000D01*
X88431000Y-73501250D01*
X88589750Y-73660000D01*
X89789000Y-73660000D01*
X89789000Y-72460750D01*
X90043000Y-72460750D01*
X90043000Y-73660000D01*
X91242250Y-73660000D01*
X91401000Y-73501250D01*
X91404072Y-72937000D01*
X91391812Y-72812518D01*
X91355502Y-72692820D01*
X91296537Y-72582506D01*
X91217185Y-72485815D01*
X91120494Y-72406463D01*
X91010180Y-72347498D01*
X90890482Y-72311188D01*
X90766000Y-72298928D01*
X90201750Y-72302000D01*
X90043000Y-72460750D01*
X89789000Y-72460750D01*
X89630250Y-72302000D01*
X89066000Y-72298928D01*
X88941518Y-72311188D01*
X88821820Y-72347498D01*
X88711506Y-72406463D01*
X88614815Y-72485815D01*
X88535463Y-72582506D01*
X88476498Y-72692820D01*
X88440188Y-72812518D01*
X88427928Y-72937000D01*
X86587000Y-72937000D01*
X86587000Y-71170446D01*
X88636446Y-69121000D01*
X93640928Y-69121000D01*
X93644000Y-69310250D01*
X93802750Y-69469000D01*
X94589500Y-69469000D01*
X94589500Y-68644750D01*
X94430750Y-68486000D01*
X94279000Y-68482928D01*
X94154518Y-68495188D01*
X94034820Y-68531498D01*
X93924506Y-68590463D01*
X93827815Y-68669815D01*
X93748463Y-68766506D01*
X93689498Y-68876820D01*
X93653188Y-68996518D01*
X93640928Y-69121000D01*
X88636446Y-69121000D01*
X91172193Y-66585254D01*
X91200238Y-66562238D01*
X91292087Y-66450320D01*
X91292927Y-66448749D01*
X91360337Y-66322634D01*
X91402365Y-66184085D01*
X91416556Y-66040000D01*
X91413000Y-66003895D01*
X91413000Y-53430895D01*
X91409368Y-53394018D01*
X91409368Y-53377544D01*
X91408295Y-53367338D01*
X91380666Y-53121022D01*
X91366816Y-53055861D01*
X91353877Y-52990515D01*
X91350843Y-52980711D01*
X91313000Y-52861414D01*
X91313000Y-51685605D01*
X113624000Y-51685605D01*
X113749914Y-51975577D01*
X114082126Y-52141433D01*
X114440312Y-52239290D01*
X114810706Y-52265389D01*
X115179075Y-52218725D01*
X115531262Y-52101094D01*
X115766086Y-51975577D01*
X115892000Y-51685605D01*
X114758000Y-50551605D01*
X113624000Y-51685605D01*
X91313000Y-51685605D01*
X91313000Y-50424706D01*
X112864611Y-50424706D01*
X112911275Y-50793075D01*
X113028906Y-51145262D01*
X113154423Y-51380086D01*
X113444395Y-51506000D01*
X114578395Y-50372000D01*
X114937605Y-50372000D01*
X116071605Y-51506000D01*
X116361577Y-51380086D01*
X116527433Y-51047874D01*
X116625290Y-50689688D01*
X116651389Y-50319294D01*
X116604725Y-49950925D01*
X116487094Y-49598738D01*
X116361577Y-49363914D01*
X116071605Y-49238000D01*
X114937605Y-50372000D01*
X114578395Y-50372000D01*
X113444395Y-49238000D01*
X113154423Y-49363914D01*
X112988567Y-49696126D01*
X112890710Y-50054312D01*
X112864611Y-50424706D01*
X91313000Y-50424706D01*
X91313000Y-49058395D01*
X113624000Y-49058395D01*
X114758000Y-50192395D01*
X115892000Y-49058395D01*
X115766086Y-48768423D01*
X115433874Y-48602567D01*
X115075688Y-48504710D01*
X114705294Y-48478611D01*
X114336925Y-48525275D01*
X113984738Y-48642906D01*
X113749914Y-48768423D01*
X113624000Y-49058395D01*
X91313000Y-49058395D01*
X91313000Y-48387000D01*
X116713416Y-48387000D01*
X116817457Y-80119656D01*
G04 #@! TA.AperFunction,Conductor*
D27*
G36*
X116817457Y-80119656D02*
G01*
X116704803Y-80007002D01*
X116681001Y-79977999D01*
X116565276Y-79883026D01*
X116503634Y-79850077D01*
X116480502Y-79773820D01*
X116421537Y-79663506D01*
X116342185Y-79566815D01*
X116282704Y-79518000D01*
X116342185Y-79469185D01*
X116421537Y-79372494D01*
X116480502Y-79262180D01*
X116516812Y-79142482D01*
X116529072Y-79018000D01*
X116529072Y-78018000D01*
X116516812Y-77893518D01*
X116480502Y-77773820D01*
X116421537Y-77663506D01*
X116342185Y-77566815D01*
X116282704Y-77518000D01*
X116342185Y-77469185D01*
X116421537Y-77372494D01*
X116480502Y-77262180D01*
X116516812Y-77142482D01*
X116529072Y-77018000D01*
X116529072Y-76018000D01*
X116516812Y-75893518D01*
X116480502Y-75773820D01*
X116421537Y-75663506D01*
X116342185Y-75566815D01*
X116282704Y-75518000D01*
X116342185Y-75469185D01*
X116421537Y-75372494D01*
X116480502Y-75262180D01*
X116516812Y-75142482D01*
X116529072Y-75018000D01*
X116529072Y-74018000D01*
X116516812Y-73893518D01*
X116480502Y-73773820D01*
X116421537Y-73663506D01*
X116342185Y-73566815D01*
X116282704Y-73518000D01*
X116342185Y-73469185D01*
X116421537Y-73372494D01*
X116480502Y-73262180D01*
X116516812Y-73142482D01*
X116529072Y-73018000D01*
X116529072Y-72018000D01*
X116516812Y-71893518D01*
X116480502Y-71773820D01*
X116421537Y-71663506D01*
X116342185Y-71566815D01*
X116245494Y-71487463D01*
X116135180Y-71428498D01*
X116015482Y-71392188D01*
X115891000Y-71379928D01*
X113391000Y-71379928D01*
X113266518Y-71392188D01*
X113179072Y-71418714D01*
X113179072Y-70118000D01*
X113166812Y-69993518D01*
X113130502Y-69873820D01*
X113071537Y-69763506D01*
X112992185Y-69666815D01*
X112895494Y-69587463D01*
X112785180Y-69528498D01*
X112665482Y-69492188D01*
X112541000Y-69479928D01*
X111541000Y-69479928D01*
X111416518Y-69492188D01*
X111296820Y-69528498D01*
X111186506Y-69587463D01*
X111089815Y-69666815D01*
X111041000Y-69726296D01*
X110992185Y-69666815D01*
X110895494Y-69587463D01*
X110785180Y-69528498D01*
X110665482Y-69492188D01*
X110541000Y-69479928D01*
X109541000Y-69479928D01*
X109416518Y-69492188D01*
X109296820Y-69528498D01*
X109186506Y-69587463D01*
X109089815Y-69666815D01*
X109041000Y-69726296D01*
X108992185Y-69666815D01*
X108895494Y-69587463D01*
X108785180Y-69528498D01*
X108665482Y-69492188D01*
X108541000Y-69479928D01*
X107541000Y-69479928D01*
X107416518Y-69492188D01*
X107296820Y-69528498D01*
X107186506Y-69587463D01*
X107089815Y-69666815D01*
X107041000Y-69726296D01*
X106992185Y-69666815D01*
X106895494Y-69587463D01*
X106785180Y-69528498D01*
X106665482Y-69492188D01*
X106541000Y-69479928D01*
X105541000Y-69479928D01*
X105416518Y-69492188D01*
X105296820Y-69528498D01*
X105186506Y-69587463D01*
X105089815Y-69666815D01*
X105041000Y-69726296D01*
X104992185Y-69666815D01*
X104895494Y-69587463D01*
X104785180Y-69528498D01*
X104665482Y-69492188D01*
X104541000Y-69479928D01*
X103541000Y-69479928D01*
X103416518Y-69492188D01*
X103296820Y-69528498D01*
X103186506Y-69587463D01*
X103089815Y-69666815D01*
X103041000Y-69726296D01*
X102992185Y-69666815D01*
X102895494Y-69587463D01*
X102785180Y-69528498D01*
X102665482Y-69492188D01*
X102541000Y-69479928D01*
X101541000Y-69479928D01*
X101416518Y-69492188D01*
X101296820Y-69528498D01*
X101186506Y-69587463D01*
X101089815Y-69666815D01*
X101010463Y-69763506D01*
X100951498Y-69873820D01*
X100915188Y-69993518D01*
X100902928Y-70118000D01*
X100902928Y-71418714D01*
X100815482Y-71392188D01*
X100691000Y-71379928D01*
X99726750Y-71383000D01*
X99568000Y-71541750D01*
X99568000Y-72391000D01*
X101116397Y-72391000D01*
X101186506Y-72448537D01*
X101296820Y-72507502D01*
X101416518Y-72543812D01*
X101541000Y-72556072D01*
X102541000Y-72556072D01*
X102665482Y-72543812D01*
X102785180Y-72507502D01*
X102895494Y-72448537D01*
X102992185Y-72369185D01*
X103041000Y-72309704D01*
X103089815Y-72369185D01*
X103186506Y-72448537D01*
X103296820Y-72507502D01*
X103416518Y-72543812D01*
X103541000Y-72556072D01*
X104541000Y-72556072D01*
X104665482Y-72543812D01*
X104785180Y-72507502D01*
X104895494Y-72448537D01*
X104992185Y-72369185D01*
X105041000Y-72309704D01*
X105089815Y-72369185D01*
X105186506Y-72448537D01*
X105296820Y-72507502D01*
X105416518Y-72543812D01*
X105541000Y-72556072D01*
X106541000Y-72556072D01*
X106665482Y-72543812D01*
X106785180Y-72507502D01*
X106895494Y-72448537D01*
X106992185Y-72369185D01*
X107041000Y-72309704D01*
X107089815Y-72369185D01*
X107186506Y-72448537D01*
X107296820Y-72507502D01*
X107416518Y-72543812D01*
X107541000Y-72556072D01*
X108541000Y-72556072D01*
X108665482Y-72543812D01*
X108785180Y-72507502D01*
X108895494Y-72448537D01*
X108992185Y-72369185D01*
X109041000Y-72309704D01*
X109089815Y-72369185D01*
X109186506Y-72448537D01*
X109296820Y-72507502D01*
X109416518Y-72543812D01*
X109541000Y-72556072D01*
X110541000Y-72556072D01*
X110665482Y-72543812D01*
X110785180Y-72507502D01*
X110789821Y-72505021D01*
X107561843Y-75733000D01*
X105639553Y-75733000D01*
X105601000Y-75729203D01*
X105562447Y-75733000D01*
X101258683Y-75733000D01*
X101221537Y-75663506D01*
X101142185Y-75566815D01*
X101082704Y-75518000D01*
X101142185Y-75469185D01*
X101221537Y-75372494D01*
X101280502Y-75262180D01*
X101316812Y-75142482D01*
X101329072Y-75018000D01*
X101326000Y-74803750D01*
X101167250Y-74645000D01*
X99568000Y-74645000D01*
X99568000Y-74665000D01*
X99314000Y-74665000D01*
X99314000Y-74645000D01*
X97714750Y-74645000D01*
X97556000Y-74803750D01*
X97552928Y-75018000D01*
X97565188Y-75142482D01*
X97601498Y-75262180D01*
X97660463Y-75372494D01*
X97739815Y-75469185D01*
X97799296Y-75518000D01*
X97739815Y-75566815D01*
X97660463Y-75663506D01*
X97623317Y-75733000D01*
X97491150Y-75733000D01*
X97491000Y-75723750D01*
X97332250Y-75565000D01*
X96545500Y-75565000D01*
X96545500Y-75585000D01*
X96291500Y-75585000D01*
X96291500Y-75565000D01*
X96271500Y-75565000D01*
X96271500Y-75311000D01*
X96291500Y-75311000D01*
X96291500Y-75291000D01*
X96545500Y-75291000D01*
X96545500Y-75311000D01*
X97332250Y-75311000D01*
X97491000Y-75152250D01*
X97494072Y-74963000D01*
X97481812Y-74838518D01*
X97445502Y-74718820D01*
X97386537Y-74608506D01*
X97307185Y-74511815D01*
X97210494Y-74432463D01*
X97100180Y-74373498D01*
X97013493Y-74347202D01*
X97131180Y-74311502D01*
X97241494Y-74252537D01*
X97338185Y-74173185D01*
X97417537Y-74076494D01*
X97476502Y-73966180D01*
X97512812Y-73846482D01*
X97525072Y-73722000D01*
X97525072Y-73212000D01*
X97512812Y-73087518D01*
X97491724Y-73018000D01*
X97552928Y-73018000D01*
X97565188Y-73142482D01*
X97601498Y-73262180D01*
X97660463Y-73372494D01*
X97739815Y-73469185D01*
X97799296Y-73518000D01*
X97739815Y-73566815D01*
X97660463Y-73663506D01*
X97601498Y-73773820D01*
X97565188Y-73893518D01*
X97552928Y-74018000D01*
X97556000Y-74232250D01*
X97714750Y-74391000D01*
X99314000Y-74391000D01*
X99314000Y-73541750D01*
X99290250Y-73518000D01*
X99314000Y-73494250D01*
X99314000Y-72645000D01*
X99568000Y-72645000D01*
X99568000Y-73494250D01*
X99591750Y-73518000D01*
X99568000Y-73541750D01*
X99568000Y-74391000D01*
X101167250Y-74391000D01*
X101326000Y-74232250D01*
X101329072Y-74018000D01*
X101316812Y-73893518D01*
X101280502Y-73773820D01*
X101221537Y-73663506D01*
X101142185Y-73566815D01*
X101082704Y-73518000D01*
X101142185Y-73469185D01*
X101221537Y-73372494D01*
X101280502Y-73262180D01*
X101316812Y-73142482D01*
X101329072Y-73018000D01*
X101326000Y-72803750D01*
X101167250Y-72645000D01*
X99568000Y-72645000D01*
X99314000Y-72645000D01*
X97714750Y-72645000D01*
X97556000Y-72803750D01*
X97552928Y-73018000D01*
X97491724Y-73018000D01*
X97483488Y-72990850D01*
X97509779Y-72910860D01*
X97522000Y-72802750D01*
X97363250Y-72644000D01*
X97171407Y-72644000D01*
X97131180Y-72622498D01*
X97011482Y-72586188D01*
X96887000Y-72573928D01*
X96390000Y-72573928D01*
X96390000Y-72460072D01*
X96887000Y-72460072D01*
X97011482Y-72447812D01*
X97131180Y-72411502D01*
X97171407Y-72390000D01*
X97363250Y-72390000D01*
X97522000Y-72231250D01*
X97509779Y-72123140D01*
X97483488Y-72043150D01*
X97491117Y-72018000D01*
X97552928Y-72018000D01*
X97556000Y-72232250D01*
X97714750Y-72391000D01*
X99314000Y-72391000D01*
X99314000Y-71541750D01*
X99155250Y-71383000D01*
X98191000Y-71379928D01*
X98066518Y-71392188D01*
X97946820Y-71428498D01*
X97836506Y-71487463D01*
X97739815Y-71566815D01*
X97660463Y-71663506D01*
X97601498Y-71773820D01*
X97565188Y-71893518D01*
X97552928Y-72018000D01*
X97491117Y-72018000D01*
X97512812Y-71946482D01*
X97525072Y-71822000D01*
X97525072Y-71312000D01*
X97512812Y-71187518D01*
X97476502Y-71067820D01*
X97417537Y-70957506D01*
X97338185Y-70860815D01*
X97241494Y-70781463D01*
X97131180Y-70722498D01*
X97019585Y-70688646D01*
X97027452Y-70673928D01*
X97043463Y-70643973D01*
X97089780Y-70491288D01*
X97091019Y-70478711D01*
X97116115Y-70458115D01*
X97155727Y-70409847D01*
X97194788Y-70406000D01*
X97194791Y-70406000D01*
X97313788Y-70394280D01*
X97466473Y-70347963D01*
X97607189Y-70272749D01*
X97730528Y-70171528D01*
X97755900Y-70140612D01*
X101314513Y-66582000D01*
X113053203Y-66582000D01*
X113087534Y-66664882D01*
X113293825Y-66973618D01*
X113556382Y-67236175D01*
X113865118Y-67442466D01*
X114208166Y-67584561D01*
X114572344Y-67657000D01*
X114943656Y-67657000D01*
X115307834Y-67584561D01*
X115650882Y-67442466D01*
X115959618Y-67236175D01*
X116222175Y-66973618D01*
X116428466Y-66664882D01*
X116570561Y-66321834D01*
X116643000Y-65957656D01*
X116643000Y-65586344D01*
X116570561Y-65222166D01*
X116428466Y-64879118D01*
X116222175Y-64570382D01*
X115959618Y-64307825D01*
X115650882Y-64101534D01*
X115307834Y-63959439D01*
X114943656Y-63887000D01*
X114572344Y-63887000D01*
X114208166Y-63959439D01*
X113865118Y-64101534D01*
X113556382Y-64307825D01*
X113293825Y-64570382D01*
X113087534Y-64879118D01*
X113053203Y-64962000D01*
X101018788Y-64962000D01*
X100979000Y-64958081D01*
X100939212Y-64962000D01*
X100939209Y-64962000D01*
X100820212Y-64973720D01*
X100703063Y-65009257D01*
X100667526Y-65020037D01*
X100526811Y-65095251D01*
X100403472Y-65196472D01*
X100378105Y-65227382D01*
X96980986Y-68624502D01*
X96838142Y-68548150D01*
X96677408Y-68499392D01*
X96510250Y-68482928D01*
X96072750Y-68482928D01*
X95905592Y-68499392D01*
X95744858Y-68548150D01*
X95596725Y-68627329D01*
X95575070Y-68645100D01*
X95508494Y-68590463D01*
X95398180Y-68531498D01*
X95278482Y-68495188D01*
X95154000Y-68482928D01*
X95002250Y-68486000D01*
X94843500Y-68644750D01*
X94843500Y-69469000D01*
X94863500Y-69469000D01*
X94863500Y-69723000D01*
X94843500Y-69723000D01*
X94843500Y-69743000D01*
X94589500Y-69743000D01*
X94589500Y-69723000D01*
X93802750Y-69723000D01*
X93644000Y-69881750D01*
X93640928Y-70071000D01*
X93653188Y-70195482D01*
X93689498Y-70315180D01*
X93748463Y-70425494D01*
X93827815Y-70522185D01*
X93924506Y-70601537D01*
X94034820Y-70660502D01*
X94079080Y-70673928D01*
X93867000Y-70673928D01*
X93742518Y-70686188D01*
X93622820Y-70722498D01*
X93512506Y-70781463D01*
X93415815Y-70860815D01*
X93336463Y-70957506D01*
X93277498Y-71067820D01*
X93241188Y-71187518D01*
X93228928Y-71312000D01*
X93228928Y-71822000D01*
X93241188Y-71946482D01*
X93277498Y-72066180D01*
X93336463Y-72176494D01*
X93415815Y-72273185D01*
X93512506Y-72352537D01*
X93622820Y-72411502D01*
X93742518Y-72447812D01*
X93867000Y-72460072D01*
X94567000Y-72460072D01*
X94567000Y-72573928D01*
X93867000Y-72573928D01*
X93742518Y-72586188D01*
X93622820Y-72622498D01*
X93512506Y-72681463D01*
X93415815Y-72760815D01*
X93336463Y-72857506D01*
X93277498Y-72967820D01*
X93241188Y-73087518D01*
X93228928Y-73212000D01*
X93228928Y-73722000D01*
X93241188Y-73846482D01*
X93277498Y-73966180D01*
X93294275Y-73997568D01*
X93198189Y-74093654D01*
X93168236Y-74118236D01*
X93143655Y-74148188D01*
X93071185Y-74220658D01*
X93041237Y-74245236D01*
X93016659Y-74275184D01*
X93016655Y-74275188D01*
X93011952Y-74280919D01*
X92943139Y-74364767D01*
X92920988Y-74406209D01*
X91760199Y-75567000D01*
X91194178Y-75567000D01*
X91069475Y-75380368D01*
X90937620Y-75248513D01*
X91010180Y-75226502D01*
X91120494Y-75167537D01*
X91217185Y-75088185D01*
X91296537Y-74991494D01*
X91355502Y-74881180D01*
X91391812Y-74761482D01*
X91404072Y-74637000D01*
X91401000Y-74072750D01*
X91242250Y-73914000D01*
X90043000Y-73914000D01*
X90043000Y-73934000D01*
X89789000Y-73934000D01*
X89789000Y-73914000D01*
X88589750Y-73914000D01*
X88431000Y-74072750D01*
X88427928Y-74637000D01*
X88440188Y-74761482D01*
X88476498Y-74881180D01*
X88535463Y-74991494D01*
X88614815Y-75088185D01*
X88711506Y-75167537D01*
X88821820Y-75226502D01*
X88894380Y-75248513D01*
X88762525Y-75380368D01*
X88600010Y-75623589D01*
X88488068Y-75893842D01*
X88431000Y-76180740D01*
X88431000Y-76473260D01*
X88488068Y-76760158D01*
X88600010Y-77030411D01*
X88762525Y-77273632D01*
X88969368Y-77480475D01*
X89143760Y-77597000D01*
X88969368Y-77713525D01*
X88762525Y-77920368D01*
X88600010Y-78163589D01*
X88488068Y-78433842D01*
X88431000Y-78720740D01*
X88431000Y-79013260D01*
X88488068Y-79300158D01*
X88600010Y-79570411D01*
X88762525Y-79813632D01*
X88969368Y-80020475D01*
X89143760Y-80137000D01*
X88969368Y-80253525D01*
X88762525Y-80460368D01*
X88600010Y-80703589D01*
X88488068Y-80973842D01*
X88431000Y-81260740D01*
X88431000Y-81553260D01*
X88488068Y-81840158D01*
X88600010Y-82110411D01*
X88762525Y-82353632D01*
X88969368Y-82560475D01*
X89143760Y-82677000D01*
X88969368Y-82793525D01*
X88762525Y-83000368D01*
X88600010Y-83243589D01*
X88488068Y-83513842D01*
X88431000Y-83800740D01*
X88431000Y-84093260D01*
X88488068Y-84380158D01*
X88600010Y-84650411D01*
X88762525Y-84893632D01*
X88969368Y-85100475D01*
X89143760Y-85217000D01*
X88969368Y-85333525D01*
X88762525Y-85540368D01*
X88600010Y-85783589D01*
X88488068Y-86053842D01*
X88431000Y-86340740D01*
X88431000Y-86633260D01*
X88488068Y-86920158D01*
X88600010Y-87190411D01*
X88762525Y-87433632D01*
X88969368Y-87640475D01*
X89212589Y-87802990D01*
X89482842Y-87914932D01*
X89769740Y-87972000D01*
X90062260Y-87972000D01*
X90349158Y-87914932D01*
X90619411Y-87802990D01*
X90862632Y-87640475D01*
X91069475Y-87433632D01*
X91231990Y-87190411D01*
X91343932Y-86920158D01*
X91401000Y-86633260D01*
X91401000Y-86340740D01*
X91343932Y-86053842D01*
X91231990Y-85783589D01*
X91069475Y-85540368D01*
X90862632Y-85333525D01*
X90688240Y-85217000D01*
X90862632Y-85100475D01*
X91069475Y-84893632D01*
X91231990Y-84650411D01*
X91343932Y-84380158D01*
X91401000Y-84093260D01*
X91401000Y-83800740D01*
X91343932Y-83513842D01*
X91231990Y-83243589D01*
X91069475Y-83000368D01*
X90862632Y-82793525D01*
X90688240Y-82677000D01*
X90862632Y-82560475D01*
X91069475Y-82353632D01*
X91231990Y-82110411D01*
X91343932Y-81840158D01*
X91401000Y-81553260D01*
X91401000Y-81260740D01*
X91343932Y-80973842D01*
X91231990Y-80703589D01*
X91069475Y-80460368D01*
X90862632Y-80253525D01*
X90688240Y-80137000D01*
X90862632Y-80020475D01*
X91069475Y-79813632D01*
X91231990Y-79570411D01*
X91343932Y-79300158D01*
X91401000Y-79013260D01*
X91401000Y-78720740D01*
X91343932Y-78433842D01*
X91231990Y-78163589D01*
X91069475Y-77920368D01*
X90862632Y-77713525D01*
X90688240Y-77597000D01*
X90862632Y-77480475D01*
X91069475Y-77273632D01*
X91194178Y-77087000D01*
X92037678Y-77087000D01*
X92075000Y-77090676D01*
X92112322Y-77087000D01*
X92112333Y-77087000D01*
X92223986Y-77076003D01*
X92367247Y-77032546D01*
X92499276Y-76961974D01*
X92615001Y-76867001D01*
X92638803Y-76837998D01*
X92814001Y-76662801D01*
X92814000Y-77431439D01*
X92814000Y-78193447D01*
X92810203Y-78232000D01*
X92814000Y-78270553D01*
X92814000Y-79032560D01*
X92814001Y-79032569D01*
X92814000Y-79971447D01*
X92810203Y-80010000D01*
X92814000Y-80048553D01*
X92814000Y-80048560D01*
X92814001Y-80048569D01*
X92814000Y-81011439D01*
X92814000Y-81979447D01*
X92810203Y-82018000D01*
X92814000Y-82056553D01*
X92814000Y-82056560D01*
X92825359Y-82171886D01*
X92870246Y-82319859D01*
X92943138Y-82456232D01*
X93041236Y-82575764D01*
X93071190Y-82600347D01*
X93548653Y-83077810D01*
X93573236Y-83107764D01*
X93692767Y-83205862D01*
X93708631Y-83214341D01*
X93740488Y-83273942D01*
X93849377Y-83406623D01*
X93982058Y-83515512D01*
X94076515Y-83566000D01*
X93982058Y-83616488D01*
X93849377Y-83725377D01*
X93740488Y-83858058D01*
X93659577Y-84009433D01*
X93609752Y-84173684D01*
X93592928Y-84344500D01*
X93592928Y-84819500D01*
X93609752Y-84990316D01*
X93659577Y-85154567D01*
X93740488Y-85305942D01*
X93849377Y-85438623D01*
X93982058Y-85547512D01*
X94010297Y-85562606D01*
X93924506Y-85608463D01*
X93827815Y-85687815D01*
X93748463Y-85784506D01*
X93689498Y-85894820D01*
X93653188Y-86014518D01*
X93640928Y-86139000D01*
X93644000Y-86328250D01*
X93802750Y-86487000D01*
X94589500Y-86487000D01*
X94589500Y-86467000D01*
X94843500Y-86467000D01*
X94843500Y-86487000D01*
X94863500Y-86487000D01*
X94863500Y-86741000D01*
X94843500Y-86741000D01*
X94843500Y-86761000D01*
X94589500Y-86761000D01*
X94589500Y-86741000D01*
X93802750Y-86741000D01*
X93675750Y-86868000D01*
X93345000Y-86868000D01*
X93320224Y-86870440D01*
X93296399Y-86877667D01*
X93274443Y-86889403D01*
X93255197Y-86905197D01*
X93239403Y-86924443D01*
X93227667Y-86946399D01*
X93220440Y-86970224D01*
X93218000Y-86995000D01*
X93218000Y-95120670D01*
X93129428Y-95119060D01*
X93131502Y-95115180D01*
X93167812Y-94995482D01*
X93180072Y-94871000D01*
X93180072Y-93371000D01*
X93167812Y-93246518D01*
X93131502Y-93126820D01*
X93072537Y-93016506D01*
X93035191Y-92971000D01*
X93072537Y-92925494D01*
X93131502Y-92815180D01*
X93167812Y-92695482D01*
X93180072Y-92571000D01*
X93180072Y-91071000D01*
X93167812Y-90946518D01*
X93131502Y-90826820D01*
X93072537Y-90716506D01*
X93035191Y-90671000D01*
X93072537Y-90625494D01*
X93131502Y-90515180D01*
X93167812Y-90395482D01*
X93180072Y-90271000D01*
X93177000Y-89806750D01*
X93018250Y-89648000D01*
X91669000Y-89648000D01*
X91669000Y-89668000D01*
X91415000Y-89668000D01*
X91415000Y-89648000D01*
X90065750Y-89648000D01*
X89907000Y-89806750D01*
X89903928Y-90271000D01*
X89916188Y-90395482D01*
X89952498Y-90515180D01*
X90011463Y-90625494D01*
X90048809Y-90671000D01*
X90011463Y-90716506D01*
X89952498Y-90826820D01*
X89916188Y-90946518D01*
X89909837Y-91011000D01*
X86880072Y-91011000D01*
X86880072Y-89921000D01*
X86867812Y-89796518D01*
X86831502Y-89676820D01*
X86772537Y-89566506D01*
X86693185Y-89469815D01*
X86596494Y-89390463D01*
X86487000Y-89331936D01*
X86487000Y-88771000D01*
X89903928Y-88771000D01*
X89907000Y-89235250D01*
X90065750Y-89394000D01*
X91415000Y-89394000D01*
X91415000Y-88294750D01*
X91669000Y-88294750D01*
X91669000Y-89394000D01*
X93018250Y-89394000D01*
X93177000Y-89235250D01*
X93180072Y-88771000D01*
X93167812Y-88646518D01*
X93131502Y-88526820D01*
X93072537Y-88416506D01*
X92993185Y-88319815D01*
X92896494Y-88240463D01*
X92786180Y-88181498D01*
X92666482Y-88145188D01*
X92542000Y-88132928D01*
X91827750Y-88136000D01*
X91669000Y-88294750D01*
X91415000Y-88294750D01*
X91256250Y-88136000D01*
X90542000Y-88132928D01*
X90417518Y-88145188D01*
X90297820Y-88181498D01*
X90187506Y-88240463D01*
X90090815Y-88319815D01*
X90011463Y-88416506D01*
X89952498Y-88526820D01*
X89916188Y-88646518D01*
X89903928Y-88771000D01*
X86487000Y-88771000D01*
X86487000Y-81505316D01*
X86531442Y-81358118D01*
X86544384Y-81292757D01*
X86558232Y-81227607D01*
X86559305Y-81217401D01*
X86583492Y-80970723D01*
X86587000Y-80935105D01*
X86587000Y-72937000D01*
X88427928Y-72937000D01*
X88431000Y-73501250D01*
X88589750Y-73660000D01*
X89789000Y-73660000D01*
X89789000Y-72460750D01*
X90043000Y-72460750D01*
X90043000Y-73660000D01*
X91242250Y-73660000D01*
X91401000Y-73501250D01*
X91404072Y-72937000D01*
X91391812Y-72812518D01*
X91355502Y-72692820D01*
X91296537Y-72582506D01*
X91217185Y-72485815D01*
X91120494Y-72406463D01*
X91010180Y-72347498D01*
X90890482Y-72311188D01*
X90766000Y-72298928D01*
X90201750Y-72302000D01*
X90043000Y-72460750D01*
X89789000Y-72460750D01*
X89630250Y-72302000D01*
X89066000Y-72298928D01*
X88941518Y-72311188D01*
X88821820Y-72347498D01*
X88711506Y-72406463D01*
X88614815Y-72485815D01*
X88535463Y-72582506D01*
X88476498Y-72692820D01*
X88440188Y-72812518D01*
X88427928Y-72937000D01*
X86587000Y-72937000D01*
X86587000Y-71170446D01*
X88636446Y-69121000D01*
X93640928Y-69121000D01*
X93644000Y-69310250D01*
X93802750Y-69469000D01*
X94589500Y-69469000D01*
X94589500Y-68644750D01*
X94430750Y-68486000D01*
X94279000Y-68482928D01*
X94154518Y-68495188D01*
X94034820Y-68531498D01*
X93924506Y-68590463D01*
X93827815Y-68669815D01*
X93748463Y-68766506D01*
X93689498Y-68876820D01*
X93653188Y-68996518D01*
X93640928Y-69121000D01*
X88636446Y-69121000D01*
X91172193Y-66585254D01*
X91200238Y-66562238D01*
X91292087Y-66450320D01*
X91292927Y-66448749D01*
X91360337Y-66322634D01*
X91402365Y-66184085D01*
X91416556Y-66040000D01*
X91413000Y-66003895D01*
X91413000Y-53430895D01*
X91409368Y-53394018D01*
X91409368Y-53377544D01*
X91408295Y-53367338D01*
X91380666Y-53121022D01*
X91366816Y-53055861D01*
X91353877Y-52990515D01*
X91350843Y-52980711D01*
X91313000Y-52861414D01*
X91313000Y-51685605D01*
X113624000Y-51685605D01*
X113749914Y-51975577D01*
X114082126Y-52141433D01*
X114440312Y-52239290D01*
X114810706Y-52265389D01*
X115179075Y-52218725D01*
X115531262Y-52101094D01*
X115766086Y-51975577D01*
X115892000Y-51685605D01*
X114758000Y-50551605D01*
X113624000Y-51685605D01*
X91313000Y-51685605D01*
X91313000Y-50424706D01*
X112864611Y-50424706D01*
X112911275Y-50793075D01*
X113028906Y-51145262D01*
X113154423Y-51380086D01*
X113444395Y-51506000D01*
X114578395Y-50372000D01*
X114937605Y-50372000D01*
X116071605Y-51506000D01*
X116361577Y-51380086D01*
X116527433Y-51047874D01*
X116625290Y-50689688D01*
X116651389Y-50319294D01*
X116604725Y-49950925D01*
X116487094Y-49598738D01*
X116361577Y-49363914D01*
X116071605Y-49238000D01*
X114937605Y-50372000D01*
X114578395Y-50372000D01*
X113444395Y-49238000D01*
X113154423Y-49363914D01*
X112988567Y-49696126D01*
X112890710Y-50054312D01*
X112864611Y-50424706D01*
X91313000Y-50424706D01*
X91313000Y-49058395D01*
X113624000Y-49058395D01*
X114758000Y-50192395D01*
X115892000Y-49058395D01*
X115766086Y-48768423D01*
X115433874Y-48602567D01*
X115075688Y-48504710D01*
X114705294Y-48478611D01*
X114336925Y-48525275D01*
X113984738Y-48642906D01*
X113749914Y-48768423D01*
X113624000Y-49058395D01*
X91313000Y-49058395D01*
X91313000Y-48387000D01*
X116713416Y-48387000D01*
X116817457Y-80119656D01*
G37*
G04 #@! TD.AperFunction*
M02*
