G04 #@! TF.GenerationSoftware,KiCad,Pcbnew,5.1.9-73d0e3b20d~88~ubuntu20.04.1*
G04 #@! TF.CreationDate,2021-03-27T20:57:37+01:00*
G04 #@! TF.ProjectId,Ceiling lamp,4365696c-696e-4672-906c-616d702e6b69,rev?*
G04 #@! TF.SameCoordinates,Original*
G04 #@! TF.FileFunction,Legend,Bot*
G04 #@! TF.FilePolarity,Positive*
%FSLAX46Y46*%
G04 Gerber Fmt 4.6, Leading zero omitted, Abs format (unit mm)*
G04 Created by KiCad (PCBNEW 5.1.9-73d0e3b20d~88~ubuntu20.04.1) date 2021-03-27 20:57:37*
%MOMM*%
%LPD*%
G01*
G04 APERTURE LIST*
%ADD10C,0.300000*%
%ADD11C,0.200000*%
%ADD12C,0.250000*%
G04 APERTURE END LIST*
D10*
X73150000Y-65614285D02*
X73150000Y-64900000D01*
X72721428Y-65757142D02*
X74221428Y-65257142D01*
X72721428Y-64757142D01*
X72864285Y-63400000D02*
X72792857Y-63471428D01*
X72721428Y-63685714D01*
X72721428Y-63828571D01*
X72792857Y-64042857D01*
X72935714Y-64185714D01*
X73078571Y-64257142D01*
X73364285Y-64328571D01*
X73578571Y-64328571D01*
X73864285Y-64257142D01*
X74007142Y-64185714D01*
X74150000Y-64042857D01*
X74221428Y-63828571D01*
X74221428Y-63685714D01*
X74150000Y-63471428D01*
X74078571Y-63400000D01*
X72721428Y-61614285D02*
X73721428Y-61614285D01*
X74221428Y-61614285D02*
X74150000Y-61685714D01*
X74078571Y-61614285D01*
X74150000Y-61542857D01*
X74221428Y-61614285D01*
X74078571Y-61614285D01*
X73721428Y-60900000D02*
X72721428Y-60900000D01*
X73578571Y-60900000D02*
X73650000Y-60828571D01*
X73721428Y-60685714D01*
X73721428Y-60471428D01*
X73650000Y-60328571D01*
X73507142Y-60257142D01*
X72721428Y-60257142D01*
X73150000Y-56864285D02*
X73150000Y-56150000D01*
X72721428Y-57007142D02*
X74221428Y-56507142D01*
X72721428Y-56007142D01*
X72864285Y-54650000D02*
X72792857Y-54721428D01*
X72721428Y-54935714D01*
X72721428Y-55078571D01*
X72792857Y-55292857D01*
X72935714Y-55435714D01*
X73078571Y-55507142D01*
X73364285Y-55578571D01*
X73578571Y-55578571D01*
X73864285Y-55507142D01*
X74007142Y-55435714D01*
X74150000Y-55292857D01*
X74221428Y-55078571D01*
X74221428Y-54935714D01*
X74150000Y-54721428D01*
X74078571Y-54650000D01*
X72721428Y-52650000D02*
X72792857Y-52792857D01*
X72864285Y-52864285D01*
X73007142Y-52935714D01*
X73435714Y-52935714D01*
X73578571Y-52864285D01*
X73650000Y-52792857D01*
X73721428Y-52650000D01*
X73721428Y-52435714D01*
X73650000Y-52292857D01*
X73578571Y-52221428D01*
X73435714Y-52150000D01*
X73007142Y-52150000D01*
X72864285Y-52221428D01*
X72792857Y-52292857D01*
X72721428Y-52435714D01*
X72721428Y-52650000D01*
X73721428Y-50864285D02*
X72721428Y-50864285D01*
X73721428Y-51507142D02*
X72935714Y-51507142D01*
X72792857Y-51435714D01*
X72721428Y-51292857D01*
X72721428Y-51078571D01*
X72792857Y-50935714D01*
X72864285Y-50864285D01*
X73721428Y-50364285D02*
X73721428Y-49792857D01*
X74221428Y-50150000D02*
X72935714Y-50150000D01*
X72792857Y-50078571D01*
X72721428Y-49935714D01*
X72721428Y-49792857D01*
D11*
X82677000Y-83185000D02*
X82677000Y-69977000D01*
X116840000Y-93091000D02*
X116840000Y-81661000D01*
X93218000Y-93091000D02*
X116840000Y-93091000D01*
X93218000Y-81661000D02*
X93218000Y-93091000D01*
X116840000Y-81661000D02*
X93218000Y-81661000D01*
X69850000Y-83185000D02*
X69850000Y-48260000D01*
X82677000Y-83185000D02*
X69850000Y-83185000D01*
X87503000Y-65151000D02*
X82677000Y-69977000D01*
X87503000Y-48260000D02*
X87503000Y-65151000D01*
X69850000Y-48260000D02*
X87503000Y-48260000D01*
D10*
X82396428Y-65500000D02*
X83896428Y-65500000D01*
X83896428Y-65142857D01*
X83825000Y-64928571D01*
X83682142Y-64785714D01*
X83539285Y-64714285D01*
X83253571Y-64642857D01*
X83039285Y-64642857D01*
X82753571Y-64714285D01*
X82610714Y-64785714D01*
X82467857Y-64928571D01*
X82396428Y-65142857D01*
X82396428Y-65500000D01*
X82825000Y-64071428D02*
X82825000Y-63357142D01*
X82396428Y-64214285D02*
X83896428Y-63714285D01*
X82396428Y-63214285D01*
X82396428Y-62714285D02*
X83896428Y-62714285D01*
X82396428Y-61857142D01*
X83896428Y-61857142D01*
X83825000Y-60357142D02*
X83896428Y-60500000D01*
X83896428Y-60714285D01*
X83825000Y-60928571D01*
X83682142Y-61071428D01*
X83539285Y-61142857D01*
X83253571Y-61214285D01*
X83039285Y-61214285D01*
X82753571Y-61142857D01*
X82610714Y-61071428D01*
X82467857Y-60928571D01*
X82396428Y-60714285D01*
X82396428Y-60571428D01*
X82467857Y-60357142D01*
X82539285Y-60285714D01*
X83039285Y-60285714D01*
X83039285Y-60571428D01*
X83182142Y-59642857D02*
X83182142Y-59142857D01*
X82396428Y-58928571D02*
X82396428Y-59642857D01*
X83896428Y-59642857D01*
X83896428Y-58928571D01*
X82396428Y-57428571D02*
X83110714Y-57928571D01*
X82396428Y-58285714D02*
X83896428Y-58285714D01*
X83896428Y-57714285D01*
X83825000Y-57571428D01*
X83753571Y-57500000D01*
X83610714Y-57428571D01*
X83396428Y-57428571D01*
X83253571Y-57500000D01*
X83182142Y-57571428D01*
X83110714Y-57714285D01*
X83110714Y-58285714D01*
X79846428Y-72357142D02*
X81346428Y-72357142D01*
X80632142Y-72357142D02*
X80632142Y-71500000D01*
X79846428Y-71500000D02*
X81346428Y-71500000D01*
X79846428Y-70785714D02*
X81346428Y-70785714D01*
X81275000Y-69285714D02*
X81346428Y-69428571D01*
X81346428Y-69642857D01*
X81275000Y-69857142D01*
X81132142Y-70000000D01*
X80989285Y-70071428D01*
X80703571Y-70142857D01*
X80489285Y-70142857D01*
X80203571Y-70071428D01*
X80060714Y-70000000D01*
X79917857Y-69857142D01*
X79846428Y-69642857D01*
X79846428Y-69500000D01*
X79917857Y-69285714D01*
X79989285Y-69214285D01*
X80489285Y-69214285D01*
X80489285Y-69500000D01*
X79846428Y-68571428D02*
X81346428Y-68571428D01*
X80632142Y-68571428D02*
X80632142Y-67714285D01*
X79846428Y-67714285D02*
X81346428Y-67714285D01*
X81346428Y-66071428D02*
X79846428Y-65571428D01*
X81346428Y-65071428D01*
X81346428Y-64285714D02*
X81346428Y-64000000D01*
X81275000Y-63857142D01*
X81132142Y-63714285D01*
X80846428Y-63642857D01*
X80346428Y-63642857D01*
X80060714Y-63714285D01*
X79917857Y-63857142D01*
X79846428Y-64000000D01*
X79846428Y-64285714D01*
X79917857Y-64428571D01*
X80060714Y-64571428D01*
X80346428Y-64642857D01*
X80846428Y-64642857D01*
X81132142Y-64571428D01*
X81275000Y-64428571D01*
X81346428Y-64285714D01*
X79846428Y-62285714D02*
X79846428Y-63000000D01*
X81346428Y-63000000D01*
X81346428Y-62000000D02*
X81346428Y-61142857D01*
X79846428Y-61571428D02*
X81346428Y-61571428D01*
X80275000Y-60714285D02*
X80275000Y-60000000D01*
X79846428Y-60857142D02*
X81346428Y-60357142D01*
X79846428Y-59857142D01*
X81275000Y-58571428D02*
X81346428Y-58714285D01*
X81346428Y-58928571D01*
X81275000Y-59142857D01*
X81132142Y-59285714D01*
X80989285Y-59357142D01*
X80703571Y-59428571D01*
X80489285Y-59428571D01*
X80203571Y-59357142D01*
X80060714Y-59285714D01*
X79917857Y-59142857D01*
X79846428Y-58928571D01*
X79846428Y-58785714D01*
X79917857Y-58571428D01*
X79989285Y-58500000D01*
X80489285Y-58500000D01*
X80489285Y-58785714D01*
X80632142Y-57857142D02*
X80632142Y-57357142D01*
X79846428Y-57142857D02*
X79846428Y-57857142D01*
X81346428Y-57857142D01*
X81346428Y-57142857D01*
X80275000Y-55428571D02*
X80275000Y-54714285D01*
X79846428Y-55571428D02*
X81346428Y-55071428D01*
X79846428Y-54571428D01*
X79846428Y-53214285D02*
X80560714Y-53714285D01*
X79846428Y-54071428D02*
X81346428Y-54071428D01*
X81346428Y-53500000D01*
X81275000Y-53357142D01*
X81203571Y-53285714D01*
X81060714Y-53214285D01*
X80846428Y-53214285D01*
X80703571Y-53285714D01*
X80632142Y-53357142D01*
X80560714Y-53500000D01*
X80560714Y-54071428D01*
X80632142Y-52571428D02*
X80632142Y-52071428D01*
X79846428Y-51857142D02*
X79846428Y-52571428D01*
X81346428Y-52571428D01*
X81346428Y-51857142D01*
X80275000Y-51285714D02*
X80275000Y-50571428D01*
X79846428Y-51428571D02*
X81346428Y-50928571D01*
X79846428Y-50428571D01*
D12*
X115994976Y-73438142D02*
X116042595Y-73485761D01*
X116185452Y-73533380D01*
X116280690Y-73533380D01*
X116423547Y-73485761D01*
X116518785Y-73390523D01*
X116566404Y-73295285D01*
X116614023Y-73104809D01*
X116614023Y-72961952D01*
X116566404Y-72771476D01*
X116518785Y-72676238D01*
X116423547Y-72581000D01*
X116280690Y-72533380D01*
X116185452Y-72533380D01*
X116042595Y-72581000D01*
X115994976Y-72628619D01*
X115185452Y-73485761D02*
X115280690Y-73533380D01*
X115471166Y-73533380D01*
X115566404Y-73485761D01*
X115614023Y-73390523D01*
X115614023Y-73009571D01*
X115566404Y-72914333D01*
X115471166Y-72866714D01*
X115280690Y-72866714D01*
X115185452Y-72914333D01*
X115137833Y-73009571D01*
X115137833Y-73104809D01*
X115614023Y-73200047D01*
X114709261Y-73533380D02*
X114709261Y-72866714D01*
X114709261Y-72533380D02*
X114756880Y-72581000D01*
X114709261Y-72628619D01*
X114661642Y-72581000D01*
X114709261Y-72533380D01*
X114709261Y-72628619D01*
X114090214Y-73533380D02*
X114185452Y-73485761D01*
X114233071Y-73390523D01*
X114233071Y-72533380D01*
X113709261Y-73533380D02*
X113709261Y-72866714D01*
X113709261Y-72533380D02*
X113756880Y-72581000D01*
X113709261Y-72628619D01*
X113661642Y-72581000D01*
X113709261Y-72533380D01*
X113709261Y-72628619D01*
X113233071Y-72866714D02*
X113233071Y-73533380D01*
X113233071Y-72961952D02*
X113185452Y-72914333D01*
X113090214Y-72866714D01*
X112947357Y-72866714D01*
X112852119Y-72914333D01*
X112804500Y-73009571D01*
X112804500Y-73533380D01*
X111899738Y-72866714D02*
X111899738Y-73676238D01*
X111947357Y-73771476D01*
X111994976Y-73819095D01*
X112090214Y-73866714D01*
X112233071Y-73866714D01*
X112328309Y-73819095D01*
X111899738Y-73485761D02*
X111994976Y-73533380D01*
X112185452Y-73533380D01*
X112280690Y-73485761D01*
X112328309Y-73438142D01*
X112375928Y-73342904D01*
X112375928Y-73057190D01*
X112328309Y-72961952D01*
X112280690Y-72914333D01*
X112185452Y-72866714D01*
X111994976Y-72866714D01*
X111899738Y-72914333D01*
X110518785Y-73533380D02*
X110614023Y-73485761D01*
X110661642Y-73390523D01*
X110661642Y-72533380D01*
X109709261Y-73533380D02*
X109709261Y-73009571D01*
X109756880Y-72914333D01*
X109852119Y-72866714D01*
X110042595Y-72866714D01*
X110137833Y-72914333D01*
X109709261Y-73485761D02*
X109804500Y-73533380D01*
X110042595Y-73533380D01*
X110137833Y-73485761D01*
X110185452Y-73390523D01*
X110185452Y-73295285D01*
X110137833Y-73200047D01*
X110042595Y-73152428D01*
X109804500Y-73152428D01*
X109709261Y-73104809D01*
X109233071Y-73533380D02*
X109233071Y-72866714D01*
X109233071Y-72961952D02*
X109185452Y-72914333D01*
X109090214Y-72866714D01*
X108947357Y-72866714D01*
X108852119Y-72914333D01*
X108804500Y-73009571D01*
X108804500Y-73533380D01*
X108804500Y-73009571D02*
X108756880Y-72914333D01*
X108661642Y-72866714D01*
X108518785Y-72866714D01*
X108423547Y-72914333D01*
X108375928Y-73009571D01*
X108375928Y-73533380D01*
X107899738Y-72866714D02*
X107899738Y-73866714D01*
X107899738Y-72914333D02*
X107804500Y-72866714D01*
X107614023Y-72866714D01*
X107518785Y-72914333D01*
X107471166Y-72961952D01*
X107423547Y-73057190D01*
X107423547Y-73342904D01*
X107471166Y-73438142D01*
X107518785Y-73485761D01*
X107614023Y-73533380D01*
X107804500Y-73533380D01*
X107899738Y-73485761D01*
X106233071Y-73152428D02*
X105471166Y-73152428D01*
X104233071Y-73009571D02*
X103899738Y-73009571D01*
X103756880Y-73533380D02*
X104233071Y-73533380D01*
X104233071Y-72533380D01*
X103756880Y-72533380D01*
X103375928Y-73485761D02*
X103233071Y-73533380D01*
X102994976Y-73533380D01*
X102899738Y-73485761D01*
X102852119Y-73438142D01*
X102804500Y-73342904D01*
X102804500Y-73247666D01*
X102852119Y-73152428D01*
X102899738Y-73104809D01*
X102994976Y-73057190D01*
X103185452Y-73009571D01*
X103280690Y-72961952D01*
X103328309Y-72914333D01*
X103375928Y-72819095D01*
X103375928Y-72723857D01*
X103328309Y-72628619D01*
X103280690Y-72581000D01*
X103185452Y-72533380D01*
X102947357Y-72533380D01*
X102804500Y-72581000D01*
X102375928Y-73533380D02*
X102375928Y-72533380D01*
X101994976Y-72533380D01*
X101899738Y-72581000D01*
X101852119Y-72628619D01*
X101804500Y-72723857D01*
X101804500Y-72866714D01*
X101852119Y-72961952D01*
X101899738Y-73009571D01*
X101994976Y-73057190D01*
X102375928Y-73057190D01*
X101233071Y-72961952D02*
X101328309Y-72914333D01*
X101375928Y-72866714D01*
X101423547Y-72771476D01*
X101423547Y-72723857D01*
X101375928Y-72628619D01*
X101328309Y-72581000D01*
X101233071Y-72533380D01*
X101042595Y-72533380D01*
X100947357Y-72581000D01*
X100899738Y-72628619D01*
X100852119Y-72723857D01*
X100852119Y-72771476D01*
X100899738Y-72866714D01*
X100947357Y-72914333D01*
X101042595Y-72961952D01*
X101233071Y-72961952D01*
X101328309Y-73009571D01*
X101375928Y-73057190D01*
X101423547Y-73152428D01*
X101423547Y-73342904D01*
X101375928Y-73438142D01*
X101328309Y-73485761D01*
X101233071Y-73533380D01*
X101042595Y-73533380D01*
X100947357Y-73485761D01*
X100899738Y-73438142D01*
X100852119Y-73342904D01*
X100852119Y-73152428D01*
X100899738Y-73057190D01*
X100947357Y-73009571D01*
X101042595Y-72961952D01*
X100471166Y-72628619D02*
X100423547Y-72581000D01*
X100328309Y-72533380D01*
X100090214Y-72533380D01*
X99994976Y-72581000D01*
X99947357Y-72628619D01*
X99899738Y-72723857D01*
X99899738Y-72819095D01*
X99947357Y-72961952D01*
X100518785Y-73533380D01*
X99899738Y-73533380D01*
X99042595Y-72533380D02*
X99233071Y-72533380D01*
X99328309Y-72581000D01*
X99375928Y-72628619D01*
X99471166Y-72771476D01*
X99518785Y-72961952D01*
X99518785Y-73342904D01*
X99471166Y-73438142D01*
X99423547Y-73485761D01*
X99328309Y-73533380D01*
X99137833Y-73533380D01*
X99042595Y-73485761D01*
X98994976Y-73438142D01*
X98947357Y-73342904D01*
X98947357Y-73104809D01*
X98994976Y-73009571D01*
X99042595Y-72961952D01*
X99137833Y-72914333D01*
X99328309Y-72914333D01*
X99423547Y-72961952D01*
X99471166Y-73009571D01*
X99518785Y-73104809D01*
X98090214Y-72533380D02*
X98280690Y-72533380D01*
X98375928Y-72581000D01*
X98423547Y-72628619D01*
X98518785Y-72771476D01*
X98566404Y-72961952D01*
X98566404Y-73342904D01*
X98518785Y-73438142D01*
X98471166Y-73485761D01*
X98375928Y-73533380D01*
X98185452Y-73533380D01*
X98090214Y-73485761D01*
X98042595Y-73438142D01*
X97994976Y-73342904D01*
X97994976Y-73104809D01*
X98042595Y-73009571D01*
X98090214Y-72961952D01*
X98185452Y-72914333D01*
X98375928Y-72914333D01*
X98471166Y-72961952D01*
X98518785Y-73009571D01*
X98566404Y-73104809D01*
X116566404Y-75283380D02*
X116566404Y-74283380D01*
X116328309Y-74283380D01*
X116185452Y-74331000D01*
X116090214Y-74426238D01*
X116042595Y-74521476D01*
X115994976Y-74711952D01*
X115994976Y-74854809D01*
X116042595Y-75045285D01*
X116090214Y-75140523D01*
X116185452Y-75235761D01*
X116328309Y-75283380D01*
X116566404Y-75283380D01*
X115185452Y-75235761D02*
X115280690Y-75283380D01*
X115471166Y-75283380D01*
X115566404Y-75235761D01*
X115614023Y-75140523D01*
X115614023Y-74759571D01*
X115566404Y-74664333D01*
X115471166Y-74616714D01*
X115280690Y-74616714D01*
X115185452Y-74664333D01*
X115137833Y-74759571D01*
X115137833Y-74854809D01*
X115614023Y-74950047D01*
X114756880Y-75235761D02*
X114661642Y-75283380D01*
X114471166Y-75283380D01*
X114375928Y-75235761D01*
X114328309Y-75140523D01*
X114328309Y-75092904D01*
X114375928Y-74997666D01*
X114471166Y-74950047D01*
X114614023Y-74950047D01*
X114709261Y-74902428D01*
X114756880Y-74807190D01*
X114756880Y-74759571D01*
X114709261Y-74664333D01*
X114614023Y-74616714D01*
X114471166Y-74616714D01*
X114375928Y-74664333D01*
X113899738Y-75283380D02*
X113899738Y-74616714D01*
X113899738Y-74283380D02*
X113947357Y-74331000D01*
X113899738Y-74378619D01*
X113852119Y-74331000D01*
X113899738Y-74283380D01*
X113899738Y-74378619D01*
X112994976Y-74616714D02*
X112994976Y-75426238D01*
X113042595Y-75521476D01*
X113090214Y-75569095D01*
X113185452Y-75616714D01*
X113328309Y-75616714D01*
X113423547Y-75569095D01*
X112994976Y-75235761D02*
X113090214Y-75283380D01*
X113280690Y-75283380D01*
X113375928Y-75235761D01*
X113423547Y-75188142D01*
X113471166Y-75092904D01*
X113471166Y-74807190D01*
X113423547Y-74711952D01*
X113375928Y-74664333D01*
X113280690Y-74616714D01*
X113090214Y-74616714D01*
X112994976Y-74664333D01*
X112518785Y-74616714D02*
X112518785Y-75283380D01*
X112518785Y-74711952D02*
X112471166Y-74664333D01*
X112375928Y-74616714D01*
X112233071Y-74616714D01*
X112137833Y-74664333D01*
X112090214Y-74759571D01*
X112090214Y-75283380D01*
X110852119Y-75283380D02*
X110852119Y-74283380D01*
X110852119Y-74664333D02*
X110756880Y-74616714D01*
X110566404Y-74616714D01*
X110471166Y-74664333D01*
X110423547Y-74711952D01*
X110375928Y-74807190D01*
X110375928Y-75092904D01*
X110423547Y-75188142D01*
X110471166Y-75235761D01*
X110566404Y-75283380D01*
X110756880Y-75283380D01*
X110852119Y-75235761D01*
X110042595Y-74616714D02*
X109804500Y-75283380D01*
X109566404Y-74616714D02*
X109804500Y-75283380D01*
X109899738Y-75521476D01*
X109947357Y-75569095D01*
X110042595Y-75616714D01*
X108423547Y-74759571D02*
X108090214Y-74759571D01*
X107947357Y-75283380D02*
X108423547Y-75283380D01*
X108423547Y-74283380D01*
X107947357Y-74283380D01*
X107518785Y-74616714D02*
X107518785Y-75283380D01*
X107518785Y-74711952D02*
X107471166Y-74664333D01*
X107375928Y-74616714D01*
X107233071Y-74616714D01*
X107137833Y-74664333D01*
X107090214Y-74759571D01*
X107090214Y-75283380D01*
X106614023Y-75283380D02*
X106614023Y-74616714D01*
X106614023Y-74807190D02*
X106566404Y-74711952D01*
X106518785Y-74664333D01*
X106423547Y-74616714D01*
X106328309Y-74616714D01*
X105994976Y-75283380D02*
X105994976Y-74616714D01*
X105994976Y-74283380D02*
X106042595Y-74331000D01*
X105994976Y-74378619D01*
X105947357Y-74331000D01*
X105994976Y-74283380D01*
X105994976Y-74378619D01*
X105090214Y-74616714D02*
X105090214Y-75616714D01*
X105090214Y-75235761D02*
X105185452Y-75283380D01*
X105375928Y-75283380D01*
X105471166Y-75235761D01*
X105518785Y-75188142D01*
X105566404Y-75092904D01*
X105566404Y-74807190D01*
X105518785Y-74711952D01*
X105471166Y-74664333D01*
X105375928Y-74616714D01*
X105185452Y-74616714D01*
X105090214Y-74664333D01*
X104185452Y-74616714D02*
X104185452Y-75283380D01*
X104614023Y-74616714D02*
X104614023Y-75140523D01*
X104566404Y-75235761D01*
X104471166Y-75283380D01*
X104328309Y-75283380D01*
X104233071Y-75235761D01*
X104185452Y-75188142D01*
X103328309Y-75235761D02*
X103423547Y-75283380D01*
X103614023Y-75283380D01*
X103709261Y-75235761D01*
X103756880Y-75140523D01*
X103756880Y-74759571D01*
X103709261Y-74664333D01*
X103614023Y-74616714D01*
X103423547Y-74616714D01*
X103328309Y-74664333D01*
X103280690Y-74759571D01*
X103280690Y-74854809D01*
X103756880Y-74950047D01*
X101566404Y-74331000D02*
X101661642Y-74283380D01*
X101804500Y-74283380D01*
X101947357Y-74331000D01*
X102042595Y-74426238D01*
X102090214Y-74521476D01*
X102137833Y-74711952D01*
X102137833Y-74854809D01*
X102090214Y-75045285D01*
X102042595Y-75140523D01*
X101947357Y-75235761D01*
X101804500Y-75283380D01*
X101709261Y-75283380D01*
X101566404Y-75235761D01*
X101518785Y-75188142D01*
X101518785Y-74854809D01*
X101709261Y-74854809D01*
X100947357Y-75283380D02*
X101042595Y-75235761D01*
X101090214Y-75188142D01*
X101137833Y-75092904D01*
X101137833Y-74807190D01*
X101090214Y-74711952D01*
X101042595Y-74664333D01*
X100947357Y-74616714D01*
X100804500Y-74616714D01*
X100709261Y-74664333D01*
X100661642Y-74711952D01*
X100614023Y-74807190D01*
X100614023Y-75092904D01*
X100661642Y-75188142D01*
X100709261Y-75235761D01*
X100804500Y-75283380D01*
X100947357Y-75283380D01*
X100756880Y-74235761D02*
X100899738Y-74378619D01*
X100185452Y-75283380D02*
X100185452Y-74616714D01*
X100185452Y-74711952D02*
X100137833Y-74664333D01*
X100042595Y-74616714D01*
X99899738Y-74616714D01*
X99804500Y-74664333D01*
X99756880Y-74759571D01*
X99756880Y-75283380D01*
X99756880Y-74759571D02*
X99709261Y-74664333D01*
X99614023Y-74616714D01*
X99471166Y-74616714D01*
X99375928Y-74664333D01*
X99328309Y-74759571D01*
X99328309Y-75283380D01*
X98471166Y-75235761D02*
X98566404Y-75283380D01*
X98756880Y-75283380D01*
X98852119Y-75235761D01*
X98899738Y-75140523D01*
X98899738Y-74759571D01*
X98852119Y-74664333D01*
X98756880Y-74616714D01*
X98566404Y-74616714D01*
X98471166Y-74664333D01*
X98423547Y-74759571D01*
X98423547Y-74854809D01*
X98899738Y-74950047D01*
X98090214Y-74616714D02*
X97566404Y-74616714D01*
X98090214Y-75283380D01*
X97566404Y-75283380D01*
X115994976Y-76938142D02*
X116042595Y-76985761D01*
X116185452Y-77033380D01*
X116280690Y-77033380D01*
X116423547Y-76985761D01*
X116518785Y-76890523D01*
X116566404Y-76795285D01*
X116614023Y-76604809D01*
X116614023Y-76461952D01*
X116566404Y-76271476D01*
X116518785Y-76176238D01*
X116423547Y-76081000D01*
X116280690Y-76033380D01*
X116185452Y-76033380D01*
X116042595Y-76081000D01*
X115994976Y-76128619D01*
X114994976Y-76938142D02*
X115042595Y-76985761D01*
X115185452Y-77033380D01*
X115280690Y-77033380D01*
X115423547Y-76985761D01*
X115518785Y-76890523D01*
X115566404Y-76795285D01*
X115614023Y-76604809D01*
X115614023Y-76461952D01*
X115566404Y-76271476D01*
X115518785Y-76176238D01*
X115423547Y-76081000D01*
X115280690Y-76033380D01*
X115185452Y-76033380D01*
X115042595Y-76081000D01*
X114994976Y-76128619D01*
X113471166Y-76509571D02*
X113328309Y-76557190D01*
X113280690Y-76604809D01*
X113233071Y-76700047D01*
X113233071Y-76842904D01*
X113280690Y-76938142D01*
X113328309Y-76985761D01*
X113423547Y-77033380D01*
X113804500Y-77033380D01*
X113804500Y-76033380D01*
X113471166Y-76033380D01*
X113375928Y-76081000D01*
X113328309Y-76128619D01*
X113280690Y-76223857D01*
X113280690Y-76319095D01*
X113328309Y-76414333D01*
X113375928Y-76461952D01*
X113471166Y-76509571D01*
X113804500Y-76509571D01*
X112614023Y-76557190D02*
X112614023Y-77033380D01*
X112947357Y-76033380D02*
X112614023Y-76557190D01*
X112280690Y-76033380D01*
X111947357Y-76652428D02*
X111185452Y-76652428D01*
X110756880Y-76985761D02*
X110614023Y-77033380D01*
X110375928Y-77033380D01*
X110280690Y-76985761D01*
X110233071Y-76938142D01*
X110185452Y-76842904D01*
X110185452Y-76747666D01*
X110233071Y-76652428D01*
X110280690Y-76604809D01*
X110375928Y-76557190D01*
X110566404Y-76509571D01*
X110661642Y-76461952D01*
X110709261Y-76414333D01*
X110756880Y-76319095D01*
X110756880Y-76223857D01*
X110709261Y-76128619D01*
X110661642Y-76081000D01*
X110566404Y-76033380D01*
X110328309Y-76033380D01*
X110185452Y-76081000D01*
X109804500Y-76747666D02*
X109328309Y-76747666D01*
X109899738Y-77033380D02*
X109566404Y-76033380D01*
X109233071Y-77033380D01*
X107709261Y-76366714D02*
X107709261Y-77033380D01*
X107947357Y-75985761D02*
X108185452Y-76700047D01*
X107566404Y-76700047D01*
X107185452Y-76938142D02*
X107137833Y-76985761D01*
X107185452Y-77033380D01*
X107233071Y-76985761D01*
X107185452Y-76938142D01*
X107185452Y-77033380D01*
X106518785Y-76033380D02*
X106423547Y-76033380D01*
X106328309Y-76081000D01*
X106280690Y-76128619D01*
X106233071Y-76223857D01*
X106185452Y-76414333D01*
X106185452Y-76652428D01*
X106233071Y-76842904D01*
X106280690Y-76938142D01*
X106328309Y-76985761D01*
X106423547Y-77033380D01*
X106518785Y-77033380D01*
X106614023Y-76985761D01*
X106661642Y-76938142D01*
X106709261Y-76842904D01*
X106756880Y-76652428D01*
X106756880Y-76414333D01*
X106709261Y-76223857D01*
X106661642Y-76128619D01*
X106614023Y-76081000D01*
X106518785Y-76033380D01*
X116661642Y-78116714D02*
X116471166Y-78783380D01*
X116280690Y-78307190D01*
X116090214Y-78783380D01*
X115899738Y-78116714D01*
X115614023Y-78116714D02*
X115423547Y-78783380D01*
X115233071Y-78307190D01*
X115042595Y-78783380D01*
X114852119Y-78116714D01*
X114566404Y-78116714D02*
X114375928Y-78783380D01*
X114185452Y-78307190D01*
X113994976Y-78783380D01*
X113804500Y-78116714D01*
X113423547Y-78688142D02*
X113375928Y-78735761D01*
X113423547Y-78783380D01*
X113471166Y-78735761D01*
X113423547Y-78688142D01*
X113423547Y-78783380D01*
X112947357Y-78783380D02*
X112947357Y-78116714D01*
X112947357Y-78307190D02*
X112899738Y-78211952D01*
X112852119Y-78164333D01*
X112756880Y-78116714D01*
X112661642Y-78116714D01*
X112328309Y-78783380D02*
X112328309Y-78116714D01*
X112328309Y-77783380D02*
X112375928Y-77831000D01*
X112328309Y-77878619D01*
X112280690Y-77831000D01*
X112328309Y-77783380D01*
X112328309Y-77878619D01*
X111852119Y-78116714D02*
X111852119Y-78783380D01*
X111852119Y-78211952D02*
X111804500Y-78164333D01*
X111709261Y-78116714D01*
X111566404Y-78116714D01*
X111471166Y-78164333D01*
X111423547Y-78259571D01*
X111423547Y-78783380D01*
X110518785Y-78735761D02*
X110614023Y-78783380D01*
X110804500Y-78783380D01*
X110899738Y-78735761D01*
X110947357Y-78688142D01*
X110994976Y-78592904D01*
X110994976Y-78307190D01*
X110947357Y-78211952D01*
X110899738Y-78164333D01*
X110804500Y-78116714D01*
X110614023Y-78116714D01*
X110518785Y-78164333D01*
X109947357Y-78783380D02*
X110042595Y-78735761D01*
X110090214Y-78688142D01*
X110137833Y-78592904D01*
X110137833Y-78307190D01*
X110090214Y-78211952D01*
X110042595Y-78164333D01*
X109947357Y-78116714D01*
X109804500Y-78116714D01*
X109709261Y-78164333D01*
X109661642Y-78211952D01*
X109614023Y-78307190D01*
X109614023Y-78592904D01*
X109661642Y-78688142D01*
X109709261Y-78735761D01*
X109804500Y-78783380D01*
X109947357Y-78783380D01*
X109185452Y-78116714D02*
X109185452Y-78783380D01*
X109185452Y-78211952D02*
X109137833Y-78164333D01*
X109042595Y-78116714D01*
X108899738Y-78116714D01*
X108804500Y-78164333D01*
X108756880Y-78259571D01*
X108756880Y-78783380D01*
X108280690Y-78783380D02*
X108280690Y-78116714D01*
X108280690Y-77783380D02*
X108328309Y-77831000D01*
X108280690Y-77878619D01*
X108233071Y-77831000D01*
X108280690Y-77783380D01*
X108280690Y-77878619D01*
X107804500Y-78116714D02*
X107804500Y-78783380D01*
X107804500Y-78211952D02*
X107756880Y-78164333D01*
X107661642Y-78116714D01*
X107518785Y-78116714D01*
X107423547Y-78164333D01*
X107375928Y-78259571D01*
X107375928Y-78783380D01*
X106471166Y-78116714D02*
X106471166Y-78926238D01*
X106518785Y-79021476D01*
X106566404Y-79069095D01*
X106661642Y-79116714D01*
X106804500Y-79116714D01*
X106899738Y-79069095D01*
X106471166Y-78735761D02*
X106566404Y-78783380D01*
X106756880Y-78783380D01*
X106852119Y-78735761D01*
X106899738Y-78688142D01*
X106947357Y-78592904D01*
X106947357Y-78307190D01*
X106899738Y-78211952D01*
X106852119Y-78164333D01*
X106756880Y-78116714D01*
X106566404Y-78116714D01*
X106471166Y-78164333D01*
X105614023Y-78735761D02*
X105709261Y-78783380D01*
X105899738Y-78783380D01*
X105994976Y-78735761D01*
X106042595Y-78640523D01*
X106042595Y-78259571D01*
X105994976Y-78164333D01*
X105899738Y-78116714D01*
X105709261Y-78116714D01*
X105614023Y-78164333D01*
X105566404Y-78259571D01*
X105566404Y-78354809D01*
X106042595Y-78450047D01*
X105137833Y-78116714D02*
X105137833Y-78783380D01*
X105137833Y-78211952D02*
X105090214Y-78164333D01*
X104994976Y-78116714D01*
X104852119Y-78116714D01*
X104756880Y-78164333D01*
X104709261Y-78259571D01*
X104709261Y-78783380D01*
X104233071Y-78783380D02*
X104233071Y-78116714D01*
X104233071Y-77783380D02*
X104280690Y-77831000D01*
X104233071Y-77878619D01*
X104185452Y-77831000D01*
X104233071Y-77783380D01*
X104233071Y-77878619D01*
X103375928Y-78735761D02*
X103471166Y-78783380D01*
X103661642Y-78783380D01*
X103756880Y-78735761D01*
X103804500Y-78640523D01*
X103804500Y-78259571D01*
X103756880Y-78164333D01*
X103661642Y-78116714D01*
X103471166Y-78116714D01*
X103375928Y-78164333D01*
X103328309Y-78259571D01*
X103328309Y-78354809D01*
X103804500Y-78450047D01*
X102899738Y-78783380D02*
X102899738Y-78116714D01*
X102899738Y-78307190D02*
X102852119Y-78211952D01*
X102804500Y-78164333D01*
X102709261Y-78116714D01*
X102614023Y-78116714D01*
X102280690Y-78783380D02*
X102280690Y-78116714D01*
X102280690Y-77783380D02*
X102328309Y-77831000D01*
X102280690Y-77878619D01*
X102233071Y-77831000D01*
X102280690Y-77783380D01*
X102280690Y-77878619D01*
X101661642Y-78783380D02*
X101756880Y-78735761D01*
X101804500Y-78640523D01*
X101804500Y-77783380D01*
X101280690Y-78688142D02*
X101233071Y-78735761D01*
X101280690Y-78783380D01*
X101328309Y-78735761D01*
X101280690Y-78688142D01*
X101280690Y-78783380D01*
X100423547Y-78735761D02*
X100518785Y-78783380D01*
X100709261Y-78783380D01*
X100804500Y-78735761D01*
X100852119Y-78640523D01*
X100852119Y-78259571D01*
X100804500Y-78164333D01*
X100709261Y-78116714D01*
X100518785Y-78116714D01*
X100423547Y-78164333D01*
X100375928Y-78259571D01*
X100375928Y-78354809D01*
X100852119Y-78450047D01*
X99994976Y-78735761D02*
X99899738Y-78783380D01*
X99709261Y-78783380D01*
X99614023Y-78735761D01*
X99566404Y-78640523D01*
X99566404Y-78592904D01*
X99614023Y-78497666D01*
X99709261Y-78450047D01*
X99852119Y-78450047D01*
X99947357Y-78402428D01*
X99994976Y-78307190D01*
X99994976Y-78259571D01*
X99947357Y-78164333D01*
X99852119Y-78116714D01*
X99709261Y-78116714D01*
X99614023Y-78164333D01*
X115994976Y-80533380D02*
X116328309Y-80057190D01*
X116566404Y-80533380D02*
X116566404Y-79533380D01*
X116185452Y-79533380D01*
X116090214Y-79581000D01*
X116042595Y-79628619D01*
X115994976Y-79723857D01*
X115994976Y-79866714D01*
X116042595Y-79961952D01*
X116090214Y-80009571D01*
X116185452Y-80057190D01*
X116566404Y-80057190D01*
X115185452Y-80485761D02*
X115280690Y-80533380D01*
X115471166Y-80533380D01*
X115566404Y-80485761D01*
X115614023Y-80390523D01*
X115614023Y-80009571D01*
X115566404Y-79914333D01*
X115471166Y-79866714D01*
X115280690Y-79866714D01*
X115185452Y-79914333D01*
X115137833Y-80009571D01*
X115137833Y-80104809D01*
X115614023Y-80200047D01*
X114804500Y-79866714D02*
X114566404Y-80533380D01*
X114328309Y-79866714D01*
X113947357Y-80438142D02*
X113899738Y-80485761D01*
X113947357Y-80533380D01*
X113994976Y-80485761D01*
X113947357Y-80438142D01*
X113947357Y-80533380D01*
X113471166Y-80438142D02*
X113423547Y-80485761D01*
X113471166Y-80533380D01*
X113518785Y-80485761D01*
X113471166Y-80438142D01*
X113471166Y-80533380D01*
X113471166Y-79914333D02*
X113423547Y-79961952D01*
X113471166Y-80009571D01*
X113518785Y-79961952D01*
X113471166Y-79914333D01*
X113471166Y-80009571D01*
X112328309Y-79533380D02*
X111709261Y-79533380D01*
X112042595Y-79914333D01*
X111899738Y-79914333D01*
X111804500Y-79961952D01*
X111756880Y-80009571D01*
X111709261Y-80104809D01*
X111709261Y-80342904D01*
X111756880Y-80438142D01*
X111804500Y-80485761D01*
X111899738Y-80533380D01*
X112185452Y-80533380D01*
X112280690Y-80485761D01*
X112328309Y-80438142D01*
X111280690Y-80438142D02*
X111233071Y-80485761D01*
X111280690Y-80533380D01*
X111328309Y-80485761D01*
X111280690Y-80438142D01*
X111280690Y-80533380D01*
X110614023Y-79533380D02*
X110518785Y-79533380D01*
X110423547Y-79581000D01*
X110375928Y-79628619D01*
X110328309Y-79723857D01*
X110280690Y-79914333D01*
X110280690Y-80152428D01*
X110328309Y-80342904D01*
X110375928Y-80438142D01*
X110423547Y-80485761D01*
X110518785Y-80533380D01*
X110614023Y-80533380D01*
X110709261Y-80485761D01*
X110756880Y-80438142D01*
X110804500Y-80342904D01*
X110852119Y-80152428D01*
X110852119Y-79914333D01*
X110804500Y-79723857D01*
X110756880Y-79628619D01*
X110709261Y-79581000D01*
X110614023Y-79533380D01*
X109090214Y-80152428D02*
X108328309Y-80152428D01*
X107137833Y-80485761D02*
X106994976Y-80533380D01*
X106756880Y-80533380D01*
X106661642Y-80485761D01*
X106614023Y-80438142D01*
X106566404Y-80342904D01*
X106566404Y-80247666D01*
X106614023Y-80152428D01*
X106661642Y-80104809D01*
X106756880Y-80057190D01*
X106947357Y-80009571D01*
X107042595Y-79961952D01*
X107090214Y-79914333D01*
X107137833Y-79819095D01*
X107137833Y-79723857D01*
X107090214Y-79628619D01*
X107042595Y-79581000D01*
X106947357Y-79533380D01*
X106709261Y-79533380D01*
X106566404Y-79581000D01*
X105423547Y-79485761D02*
X106280690Y-80771476D01*
X105090214Y-80533380D02*
X105090214Y-79533380D01*
X104518785Y-80533380D01*
X104518785Y-79533380D01*
X104042595Y-80438142D02*
X103994976Y-80485761D01*
X104042595Y-80533380D01*
X104090214Y-80485761D01*
X104042595Y-80438142D01*
X104042595Y-80533380D01*
X104042595Y-79914333D02*
X103994976Y-79961952D01*
X104042595Y-80009571D01*
X104090214Y-79961952D01*
X104042595Y-79914333D01*
X104042595Y-80009571D01*
M02*
